/* XPM */
static char * analyze_32x32_xpm[] = {
"32 32 98 2",
"  	c None",
". 	c #323232",
"+ 	c #333333",
"@ 	c #3A3A3A",
"# 	c #444444",
"$ 	c #4C4C4C",
"% 	c #4B4B4B",
"& 	c #5E5E5E",
"* 	c #5F5F5F",
"= 	c #5B5B5B",
"- 	c #424242",
"; 	c #454545",
"> 	c #3D3D3D",
", 	c #343434",
"' 	c #3C3C3C",
") 	c #515151",
"! 	c #525252",
"~ 	c #626262",
"{ 	c #696969",
"] 	c #6A6A6A",
"^ 	c #636363",
"/ 	c #5C5C5C",
"( 	c #595959",
"_ 	c #555555",
": 	c #606060",
"< 	c #646464",
"[ 	c #676767",
"} 	c #494949",
"| 	c #404040",
"1 	c #383838",
"2 	c #4D4D4D",
"3 	c #4A4A4A",
"4 	c #4F4F4F",
"5 	c #484848",
"6 	c #4E4E4E",
"7 	c #373737",
"8 	c #474747",
"9 	c #505050",
"0 	c #545454",
"a 	c #393939",
"b 	c #363636",
"c 	c #828282",
"d 	c #989898",
"e 	c #AAAAAA",
"f 	c #B0B0B0",
"g 	c #767676",
"h 	c #7E7E7E",
"i 	c #7A7A7A",
"j 	c #A3A3A3",
"k 	c #ADADAD",
"l 	c #9D9D9D",
"m 	c #888888",
"n 	c #434343",
"o 	c #959595",
"p 	c #B3B3B3",
"q 	c #9C9C9C",
"r 	c #5A5A5A",
"s 	c #535353",
"t 	c #707070",
"u 	c #B2B2B2",
"v 	c #717171",
"w 	c #929292",
"x 	c #777777",
"y 	c #7B7B7B",
"z 	c #464646",
"A 	c #6F6F6F",
"B 	c #ABABAB",
"C 	c #A0A0A0",
"D 	c #414141",
"E 	c #737373",
"F 	c #A4A4A4",
"G 	c #3F3F3F",
"H 	c #6B6B6B",
"I 	c #A6A6A6",
"J 	c #AFAFAF",
"K 	c #797979",
"L 	c #353535",
"M 	c #919191",
"N 	c #8D8D8D",
"O 	c #6D6D6D",
"P 	c #616161",
"Q 	c #5D5D5D",
"R 	c #B1B1B1",
"S 	c #9B9B9B",
"T 	c #979797",
"U 	c #A5A5A5",
"V 	c #AEAEAE",
"W 	c #656565",
"X 	c #A8A8A8",
"Y 	c #818181",
"Z 	c #7F7F7F",
"` 	c #787878",
" .	c #686868",
"..	c #3B3B3B",
"+.	c #565656",
"@.	c #3E3E3E",
"#.	c #575757",
"$.	c #747474",
"                                                                ",
"                                                                ",
"                                                                ",
"                                                                ",
"                                                                ",
"                                                                ",
"                                                                ",
"                                                                ",
"                  .       + + + + + + +                         ",
"                  . . + + . . + + + + . + + + +                 ",
"          + + + + + @ # $ % $ & * = $ - ; > , + + + + +         ",
"        + + + ' ) ! ~ { ] ^ / ( _ * : < { [ / } | , + +         ",
"      + + 1 $ _ 2 3 2 4 4 > @ 5 6 | 7 8 9 6 % 3 0 6 a + +       ",
"    + + b | 3 ^ c d e f g > : h h i 5 9 j k l m ] 6 n b + +     ",
"  + + @ < o f p p p p q 5 { 6 ! 4 r s 2 t p p p p u l v | + +   ",
"  + # w p p p p p p p x s y } z 3 | * A 2 B p p p p p p C s +   ",
"  , w p p p p p p p p * _ & D $ $ % 5 E $ q p p p p p p p F D . ",
"  1 C p p p p p p p p ( ) 9 # $ $ $ G % - d p p p p p p p e % + ",
"  + ^ e p p p p p p p A r A D $ $ } % H $ I p p p p p p J K L   ",
"  + L _ M k p p p p p N 5 O # D ; > P Q Q R p p p p f S < 1 +   ",
"    + + @ _ i T U f p V : G W { P [ 3 8 o p u X S Y & G + +     ",
"      + , 1 # | 2 / E Z ` # } P  ._ ..: Z x P 9 D n a , + +     ",
"        + + , 8 = +.0 ) $ z G @ 1 @.# } 9 0 #.2 $ 7 + +         ",
"          + + + + + ; 0 : & & E $.t Q s +.3 1 + + + . +         ",
"          +     + . . + + . . + + + + . + + + +                 ",
"                  +     + . + + + + + +       +                 ",
"                                                                ",
"                                                                ",
"                                                                ",
"                                                                ",
"                                                                ",
"                                                                "};
