/* XPM */
static char * clipboard_32x32_xpm[] = {
"32 32 125 2",
"  	c None",
". 	c #C8C8C8",
"+ 	c #CACACA",
"@ 	c #CBCBCB",
"# 	c #C3C3C3",
"$ 	c #8C3D03",
"% 	c #B9AEA7",
"& 	c #BBB0A8",
"* 	c #B19682",
"= 	c #B8B8B8",
"- 	c #9A6843",
"; 	c #944204",
"> 	c #8B3D02",
", 	c #894716",
"' 	c #8A4818",
") 	c #894717",
"! 	c #874513",
"~ 	c #864311",
"{ 	c #85410F",
"] 	c #8E5931",
"^ 	c #B2AEAA",
"/ 	c #B3B3B3",
"( 	c #B0B0B0",
"_ 	c #ADADAD",
": 	c #9C8574",
"< 	c #874D23",
"[ 	c #7F3600",
"} 	c #8B3C02",
"| 	c #DBCCC3",
"1 	c #F1EEED",
"2 	c #F0EDEC",
"3 	c #EAE6E5",
"4 	c #D4D3D3",
"5 	c #D5D5D6",
"6 	c #D4D4D5",
"7 	c #D3D3D4",
"8 	c #D2D2D3",
"9 	c #D1D2D3",
"0 	c #D0CECD",
"a 	c #EBE6E4",
"b 	c #EAE3E0",
"c 	c #E8E1DE",
"d 	c #E7DFDB",
"e 	c #E5DDD7",
"f 	c #BD9C84",
"g 	c #66442B",
"h 	c #E1D6CE",
"i 	c #F7F8FA",
"j 	c #C7AC98",
"k 	c #65432A",
"l 	c #E2D8D1",
"m 	c #C6AA96",
"n 	c #E4DBD5",
"o 	c #C4A792",
"p 	c #E5DCD6",
"q 	c #C3A690",
"r 	c #E7DFDA",
"s 	c #C2A38D",
"t 	c #E8E1DD",
"u 	c #C0A18A",
"v 	c #E9E3DF",
"w 	c #BF9F88",
"x 	c #EBE6E3",
"y 	c #ECE7E5",
"z 	c #BC9A82",
"A 	c #EDEAE8",
"B 	c #BB9880",
"C 	c #EFECEC",
"D 	c #B9967C",
"E 	c #F0EEED",
"F 	c #B8947A",
"G 	c #F1F0F1",
"H 	c #B79277",
"I 	c #F3F3F4",
"J 	c #B58F73",
"K 	c #8B3C03",
"L 	c #F4F4F5",
"M 	c #B48D71",
"N 	c #8B3E04",
"O 	c #F5F6F8",
"P 	c #B38B6E",
"Q 	c #8B3E05",
"R 	c #F6F7F9",
"S 	c #B1896B",
"T 	c #8C4008",
"U 	c #F7F8F9",
"V 	c #B08769",
"W 	c #8E430B",
"X 	c #AE8465",
"Y 	c #8F440D",
"Z 	c #AD8263",
"` 	c #904710",
" .	c #AC8060",
"..	c #924913",
"+.	c #AA7D5D",
"@.	c #934B15",
"#.	c #A97C5B",
"$.	c #944C17",
"%.	c #E6DDD8",
"&.	c #E7E0DC",
"*.	c #E9E2DE",
"=.	c #EAE4E1",
"-.	c #EBE7E5",
";.	c #ECE8E6",
">.	c #EEEBEA",
",.	c #F1EFEF",
"'.	c #F2F1F1",
").	c #F3F2F2",
"!.	c #F3F2F3",
"~.	c #F4F3F3",
"{.	c #A77855",
"].	c #63432B",
"^.	c #934913",
"/.	c #823A05",
"(.	c #833A04",
"_.	c #843B06",
":.	c #843C08",
"<.	c #853E0A",
"[.	c #87410E",
"}.	c #884310",
"|.	c #894513",
"1.	c #8B4816",
"2.	c #8C4918",
"3.	c #8D4C1C",
"4.	c #7A3E13",
"                                                                ",
"                              . + @                             ",
"                            + +   #                             ",
"              $ $ $ $ $ $ $ % & * = - $ $ $ $ $ $ ;             ",
"            > , ' ) ! ~ { ] ^ / ( _ : < [ [ [ [ [ [             ",
"            } | 1 1 2 2 3 4 5 6 7 8 9 0 a b c d e f g           ",
"            } h i i i i i i i i i i i i i i i i i j k           ",
"            } l i i i i i i i i i i i i i i i i i m k           ",
"            } n i i i i i i i i i i i i i i i i i o k           ",
"            } p i i i i i i i i i i i i i i i i i q k           ",
"            } r i i i i i i i i i i i i i i i i i s k           ",
"            } t i i i i i i i i i i i i i i i i i u k           ",
"            } v i i i i i i i i i i i i i i i i i w k           ",
"            } x i i i i i i i i i i i i i i i i i f k           ",
"            } y i i i i i i i i i i i i i i i i i z k           ",
"            } A i i i i i i i i i i i i i i i i i B k           ",
"            } C i i i i i i i i i i i i i i i i i D k           ",
"            } E i i i i i i i i i i i i i i i i i F k           ",
"            } G i i i i i i i i i i i i i i i i i H k           ",
"            } I i i i i i i i i i i i i i i i i i J k           ",
"            K L i i i i i i i i i i i i i i i i i M k           ",
"            N O i i i i i i i i i i i i i i i i i P k           ",
"            Q R i i i i i i i i i i i i i i i i i S k           ",
"            T U i i i i i i i i i i i i i i i i i V k           ",
"            W i i i i i i i i i i i i i i i i i i X k           ",
"            Y i i i i i i i i i i i i i i i i i i Z k           ",
"            ` i i i i i i i i i i i i i i i i i i  .k           ",
"            ..i i i i i i i i i i i i i i i i i i +.k           ",
"            @.i i i i i i i i i i i i i i i i i i #.k           ",
"            $.%.&.*.=.-.;.>.E ,.'.).).).!.!.~.~.~.{.].          ",
"            ^./.(.(.(.(.(.(.(.(._.:.<.[.}.|.1.2.3.4.            ",
"                                                                "};
