/* XPM */
static char * folder_64x64_xpm[] = {
"64 64 687 2",
"  	c None",
". 	c #5895DD",
"+ 	c #5794DD",
"@ 	c #5694DD",
"# 	c #5593DD",
"$ 	c #5D97DF",
"% 	c #5B97DE",
"& 	c #5A96DE",
"* 	c #5996DE",
"= 	c #5995DD",
"- 	c #609ADF",
"; 	c #5F99DF",
"> 	c #5E99DF",
", 	c #5D98DF",
"' 	c #5C97DE",
") 	c #5795DD",
"! 	c #659CE0",
"~ 	c #649CE0",
"{ 	c #629BE0",
"] 	c #629AE0",
"^ 	c #619ADF",
"/ 	c #6099DF",
"( 	c #5E98DF",
"_ 	c #5D97DE",
": 	c #5B96DE",
"< 	c #689EE1",
"[ 	c #679EE1",
"} 	c #669DE1",
"| 	c #659DE1",
"1 	c #639CE0",
"2 	c #619AE0",
"3 	c #5C98DE",
"4 	c #6DA1E3",
"5 	c #6CA0E2",
"6 	c #6BA0E2",
"7 	c #6A9FE2",
"8 	c #699FE2",
"9 	c #679DE1",
"0 	c #659CE1",
"a 	c #639BE0",
"b 	c #476BA6",
"c 	c #4F72AB",
"d 	c #5783C1",
"e 	c #6596D6",
"f 	c #6EA1E2",
"g 	c #6CA1E3",
"h 	c #6AA0E2",
"i 	c #689FE2",
"j 	c #5B7CB2",
"k 	c #718EBC",
"l 	c #6A88B7",
"m 	c #5B7CB1",
"n 	c #527AB7",
"o 	c #5F8DCD",
"p 	c #6FA2E2",
"q 	c #6FA2E3",
"r 	c #6EA2E3",
"s 	c #446CAC",
"t 	c #6585B9",
"u 	c #6A89BA",
"v 	c #6C8ABB",
"w 	c #6F8CBB",
"x 	c #708DBB",
"y 	c #6281B4",
"z 	c #5277B0",
"A 	c #5984C2",
"B 	c #6999D9",
"C 	c #70A2E3",
"D 	c #70A3E3",
"E 	c #699EE0",
"F 	c #537FBE",
"G 	c #486DA7",
"H 	c #496CA5",
"I 	c #476CA6",
"J 	c #395C97",
"K 	c #4E75B2",
"L 	c #6083B9",
"M 	c #6284B9",
"N 	c #6787BA",
"O 	c #6989BA",
"P 	c #6E8CBB",
"Q 	c #6887B8",
"R 	c #5A7CB2",
"S 	c #537CB8",
"T 	c #6291D0",
"U 	c #71A3E2",
"V 	c #71A3E4",
"W 	c #537EBC",
"X 	c #6783B1",
"Y 	c #8097BD",
"Z 	c #869BC0",
"` 	c #8399BE",
" .	c #7990B8",
"..	c #637FAD",
"+.	c #4D6CA1",
"@.	c #3A5D97",
"#.	c #5279B6",
"$.	c #587EB8",
"%.	c #5A7FB8",
"&.	c #5D80B9",
"*.	c #5F82B9",
"=.	c #6184B9",
"-.	c #6485BA",
";.	c #6687BA",
">.	c #6988BA",
",.	c #6B89BA",
"'.	c #6D8BBA",
").	c #6081B4",
"!.	c #5478B2",
"~.	c #5C88C5",
"{.	c #6B9AD9",
"].	c #5A85C2",
"^.	c #6986B5",
"/.	c #7F97BF",
"(.	c #8199C0",
"_.	c #849BC0",
":.	c #879DC1",
"<.	c #899FC2",
"[.	c #8CA0C3",
"}.	c #8FA2C4",
"|.	c #869BBF",
"1.	c #6B85B1",
"2.	c #5170A4",
"3.	c #44659D",
"4.	c #4974B7",
"5.	c #4F78B8",
"6.	c #5179B8",
"7.	c #537BB8",
"8.	c #567CB8",
"9.	c #587DB8",
"0.	c #5D81B9",
"a.	c #6183B9",
"b.	c #6485B9",
"c.	c #6686B9",
"d.	c #6888BA",
"e.	c #6685B7",
"f.	c #5B7DB4",
"g.	c #7490BC",
"h.	c #7792BD",
"i.	c #7A93BE",
"j.	c #7C95BE",
"k.	c #849AC0",
"l.	c #869DC1",
"m.	c #899EC2",
"n.	c #8CA1C3",
"o.	c #8EA2C4",
"p.	c #859ABF",
"q.	c #738BB5",
"r.	c #5876A7",
"s.	c #40619A",
"t.	c #4976BA",
"u.	c #4975B9",
"v.	c #4A76B8",
"w.	c #4C77B8",
"x.	c #4E78B8",
"y.	c #5079B8",
"z.	c #537AB8",
"A.	c #557CB8",
"B.	c #577DB8",
"C.	c #597EB8",
"D.	c #5C80B8",
"E.	c #5E81B9",
"F.	c #6384B9",
"G.	c #6586BA",
"H.	c #6887BA",
"I.	c #6C8BBB",
"J.	c #748FBC",
"K.	c #7691BD",
"L.	c #7993BD",
"M.	c #7B95BE",
"N.	c #7E96BF",
"O.	c #8098BF",
"P.	c #839AC0",
"Q.	c #859CC1",
"R.	c #889EC2",
"S.	c #8BA0C2",
"T.	c #8EA2C3",
"U.	c #7890B8",
"V.	c #5E7BAA",
"W.	c #46679E",
"X.	c #3B5D98",
"Y.	c #4C79BF",
"Z.	c #4B79BD",
"`.	c #4A78BC",
" +	c #4A77BB",
".+	c #4976B9",
"++	c #4C76B8",
"@+	c #4E77B8",
"#+	c #527AB8",
"$+	c #557BB8",
"%+	c #6082B9",
"&+	c #718EBB",
"*+	c #7B94BE",
"=+	c #859BC1",
"-+	c #889DC2",
";+	c #8DA1C3",
">+	c #8B9FC2",
",+	c #6D86B2",
"'+	c #4D7CC2",
")+	c #4D7BC1",
"!+	c #4C7AC0",
"~+	c #4C7ABF",
"{+	c #4B79BE",
"]+	c #4B78BC",
"^+	c #4A76BA",
"/+	c #4A75B8",
"(+	c #4B76B8",
"_+	c #4D77B8",
":+	c #5279B7",
"<+	c #547BB8",
"[+	c #5B7FB8",
"}+	c #5D81B8",
"|+	c #6283B9",
"1+	c #6B8ABA",
"2+	c #6E8BBB",
"3+	c #738FBC",
"4+	c #7590BC",
"5+	c #7892BD",
"6+	c #7A94BE",
"7+	c #7D96BE",
"8+	c #8299C0",
"9+	c #3C5F99",
"0+	c #4F7FC6",
"a+	c #4E7EC5",
"b+	c #4E7DC3",
"c+	c #4D77B7",
"d+	c #728FBC",
"e+	c #7D95BE",
"f+	c #7690BA",
"g+	c #5183CB",
"h+	c #5181C9",
"i+	c #5081C8",
"j+	c #5080C7",
"k+	c #4F7EC5",
"l+	c #4E7DC4",
"m+	c #4D7CC1",
"n+	c #4C7BC0",
"o+	c #4B78BD",
"p+	c #4A77BC",
"q+	c #4A76BB",
"r+	c #4975B8",
"s+	c #4E78B7",
"t+	c #557CB7",
"u+	c #5A7EB8",
"v+	c #5F81B8",
"w+	c #6686BA",
"x+	c #728EBC",
"y+	c #7791BC",
"z+	c #5B7AAE",
"A+	c #5385CE",
"B+	c #5284CD",
"C+	c #5283CC",
"D+	c #5182CA",
"E+	c #5182C9",
"F+	c #4D7CC3",
"G+	c #5079B7",
"H+	c #537AB7",
"I+	c #5E81B8",
"J+	c #6182B9",
"K+	c #6586B9",
"L+	c #6887B9",
"M+	c #6C8ABA",
"N+	c #6E8BBA",
"O+	c #4A6EA9",
"P+	c #5689D3",
"Q+	c #5588D2",
"R+	c #5487D1",
"S+	c #5486D0",
"T+	c #5384CD",
"U+	c #5283CB",
"V+	c #5081C9",
"W+	c #4C76B7",
"X+	c #5078B7",
"Y+	c #577CB8",
"Z+	c #6082B8",
"`+	c #5E80B5",
" @	c #476FAD",
".@	c #588CD6",
"+@	c #578AD5",
"@@	c #5689D4",
"#@	c #5589D3",
"$@	c #5486CF",
"%@	c #5284CC",
"&@	c #4B76B7",
"*@	c #4F78B7",
"=@	c #547BB7",
"-@	c #5D80B8",
";@	c #5278B3",
">@	c #729DDA",
",@	c #80ACE7",
"'@	c #5C8FD9",
")@	c #5A8ED8",
"!@	c #598DD7",
"~@	c #578BD6",
"{@	c #568AD4",
"]@	c #5385CF",
"^@	c #5080C8",
"/@	c #4F7FC7",
"(@	c #4E7EC4",
"_@	c #4B75B8",
":@	c #5179B7",
"<@	c #547DBC",
"[@	c #82ACE7",
"}@	c #83AEE8",
"|@	c #82ADE8",
"1@	c #81ADE8",
"2@	c #80ACE8",
"3@	c #6194DC",
"4@	c #6596DC",
"5@	c #6093DA",
"6@	c #5D91D9",
"7@	c #5B8FD9",
"8@	c #578BD5",
"9@	c #4F7FC5",
"0@	c #4A75B7",
"a@	c #4D76B7",
"b@	c #6790CE",
"c@	c #87B0E9",
"d@	c #86B0E9",
"e@	c #85AFE9",
"f@	c #84AFE9",
"g@	c #81ACE8",
"h@	c #6B9CDF",
"i@	c #74A1E1",
"j@	c #6E9EDF",
"k@	c #699ADD",
"l@	c #6496DB",
"m@	c #5F93DA",
"n@	c #5D91DA",
"o@	c #5B8ED8",
"p@	c #588CD7",
"q@	c #5588D3",
"r@	c #5487D0",
"s@	c #5386CF",
"t@	c #81A9E2",
"u@	c #8BB2EA",
"v@	c #8AB2EA",
"w@	c #89B1EA",
"x@	c #88B1EA",
"y@	c #699CE1",
"z@	c #7EAAE4",
"A@	c #80ABE4",
"B@	c #7BA7E3",
"C@	c #76A4E2",
"D@	c #719FE0",
"E@	c #6C9BDE",
"F@	c #6698DD",
"G@	c #6194DB",
"H@	c #5E92DA",
"I@	c #568AD5",
"J@	c #5587D1",
"K@	c #4F80C7",
"L@	c #5681C4",
"M@	c #8FB5EB",
"N@	c #8EB4EB",
"O@	c #8DB4EB",
"P@	c #8CB3EB",
"Q@	c #8BB3EA",
"R@	c #89B2EA",
"S@	c #73A4E4",
"T@	c #92B8EA",
"U@	c #8DB5E8",
"V@	c #88B1E7",
"W@	c #84ADE6",
"X@	c #7FAAE4",
"Y@	c #7AA6E3",
"Z@	c #74A2E1",
"`@	c #6F9EE0",
" #	c #699BDE",
".#	c #6597DC",
"+#	c #5F92DA",
"@#	c #5C90D9",
"##	c #5B8FD8",
"$#	c #5A8DD7",
"%#	c #598CD7",
"&#	c #5182CB",
"*#	c #4E7CC3",
"=#	c #7099D6",
"-#	c #92B7EC",
";#	c #91B6EC",
">#	c #90B5EC",
",#	c #83AFE9",
"'#	c #9EC0ED",
")#	c #9ABDEC",
"!#	c #94B9EA",
"~#	c #90B6E9",
"{#	c #8BB3E8",
"]#	c #86AFE7",
"^#	c #81ACE5",
"/#	c #7CA8E4",
"(#	c #71A0E1",
"_#	c #6C9CDF",
":#	c #6799DE",
"<#	c #6295DC",
"[#	c #6093DB",
"}#	c #5A8ED7",
"|#	c #507FC5",
"1#	c #81A7E0",
"2#	c #8FB3E9",
"3#	c #91B5EA",
"4#	c #92B6EB",
"5#	c #92B6EC",
"6#	c #89B4EB",
"7#	c #AAC8F0",
"8#	c #A5C5EF",
"9#	c #A1C2EE",
"0#	c #9CBFED",
"a#	c #97BCEC",
"b#	c #93B8EB",
"c#	c #8EB5E9",
"d#	c #89B2E8",
"e#	c #84AEE6",
"f#	c #7FABE5",
"g#	c #7AA7E3",
"h#	c #75A3E2",
"i#	c #709FE0",
"j#	c #6A9BDF",
"k#	c #6598DD",
"l#	c #6093DC",
"m#	c #5E92DB",
"n#	c #5B89CD",
"o#	c #87ACE2",
"p#	c #8AAEE4",
"q#	c #8BB0E5",
"r#	c #8DB1E7",
"s#	c #8EB2E8",
"t#	c #90B4E9",
"u#	c #7CADEA",
"v#	c #A8C8F1",
"w#	c #B0CDF2",
"x#	c #ACCAF1",
"y#	c #A7C7F0",
"z#	c #A3C4EF",
"A#	c #9EC1EE",
"B#	c #99BDEC",
"C#	c #95BAEB",
"D#	c #90B6EA",
"E#	c #8BB3E9",
"F#	c #86B0E7",
"G#	c #81ACE6",
"H#	c #77A5E3",
"I#	c #72A1E1",
"J#	c #6D9DE0",
"K#	c #6397DD",
"L#	c #6195DC",
"M#	c #5F92DB",
"N#	c #588BD6",
"O#	c #6A95D4",
"P#	c #83A8DF",
"Q#	c #85A9E0",
"R#	c #86ABE1",
"S#	c #88ACE2",
"T#	c #89ADE3",
"U#	c #8BAFE5",
"V#	c #7DADEA",
"W#	c #92BBED",
"X#	c #A7C8F1",
"Y#	c #B0CEF2",
"Z#	c #AECCF2",
"`#	c #AAC9F1",
" $	c #A6C6F0",
".$	c #A1C3EF",
"+$	c #9DBFED",
"@$	c #98BDEC",
"#$	c #93B9EB",
"$$	c #8EB6EA",
"%$	c #85AFE7",
"&$	c #7FABE6",
"*$	c #7BA8E4",
"=$	c #75A4E3",
"-$	c #70A0E1",
";$	c #6B9CE0",
">$	c #6699DE",
",$	c #6396DD",
"'$	c #6094DC",
")$	c #5F93DB",
"!$	c #5E91DA",
"~$	c #769DD7",
"{$	c #7EA3DA",
"]$	c #7FA4DB",
"^$	c #80A6DC",
"/$	c #82A7DE",
"($	c #84A8DF",
"_$	c #8AB4EA",
":$	c #9CC1F0",
"<$	c #AFCDF3",
"[$	c #A7C8F0",
"}$	c #9ABEED",
"|$	c #95BBEC",
"1$	c #90B8EA",
"2$	c #8CB4E9",
"3$	c #87B0E8",
"4$	c #82ADE6",
"5$	c #7DAAE5",
"6$	c #77A6E4",
"7$	c #73A2E2",
"8$	c #6D9EE0",
"9$	c #699BDF",
"0$	c #6598DE",
"a$	c #6094DB",
"b$	c #5D90D9",
"c$	c #5B8CD3",
"d$	c #779DD4",
"e$	c #789ED6",
"f$	c #7A9FD7",
"g$	c #7BA1D8",
"h$	c #7DA2D9",
"i$	c #7EA4DB",
"j$	c #80AEE7",
"k$	c #93BBEE",
"l$	c #A5C7F2",
"m$	c #B0CEF3",
"n$	c #AFCDF2",
"o$	c #AACAF1",
"p$	c #A6C7F0",
"q$	c #9DC0EE",
"r$	c #98BDED",
"s$	c #94BAEB",
"t$	c #8FB6EA",
"u$	c #8AB3E9",
"v$	c #85AFE8",
"w$	c #80ACE6",
"x$	c #7BA8E5",
"y$	c #76A5E3",
"z$	c #71A1E2",
"A$	c #6C9DE1",
"B$	c #679ADF",
"C$	c #6498DE",
"D$	c #6195DD",
"E$	c #6591D2",
"F$	c #7297D0",
"G$	c #7399D1",
"H$	c #749AD2",
"I$	c #769BD3",
"J$	c #789DD5",
"K$	c #81ADE3",
"L$	c #8AB5EB",
"M$	c #9BC1F0",
"N$	c #AFCEF3",
"O$	c #B1CEF3",
"P$	c #ACCBF2",
"Q$	c #A3C5F0",
"R$	c #9FC2EF",
"S$	c #9ABFEE",
"T$	c #96BBEC",
"U$	c #91B8EB",
"V$	c #8CB5EA",
"W$	c #87B1E8",
"X$	c #82AEE7",
"Y$	c #7DAAE6",
"Z$	c #78A7E4",
"`$	c #73A3E3",
" %	c #6E9FE1",
".%	c #699CE0",
"+%	c #6699DF",
"@%	c #6497DE",
"#%	c #6295DD",
"$%	c #6890CC",
"%%	c #6C92CB",
"&%	c #6D93CC",
"*%	c #6E94CC",
"=%	c #6F95CD",
"-%	c #80AFE8",
";%	c #91BAEC",
">%	c #A6C8F2",
",%	c #AACAF2",
"'%	c #A6C7F1",
")%	c #A2C4F0",
"!%	c #9DC1EE",
"~%	c #99BEED",
"{%	c #94BAEC",
"]%	c #8FB7EB",
"^%	c #8AB4E9",
"/%	c #85B0E8",
"(%	c #81ACE7",
"_%	c #7CA9E6",
":%	c #77A5E4",
"<%	c #71A2E2",
"[%	c #6C9EE1",
"}%	c #689BE0",
"|%	c #6397DE",
"1%	c #6091D5",
"2%	c #6188C2",
"3%	c #6389C3",
"4%	c #648BC4",
"5%	c #668CC5",
"6%	c #678DC6",
"7%	c #88B2E5",
"8%	c #9CC2F1",
"9%	c #AFCEF4",
"0%	c #A4C6F0",
"a%	c #9BBFEE",
"b%	c #96BCED",
"c%	c #91B8EC",
"d%	c #88B2E9",
"e%	c #7EABE6",
"f%	c #79A7E5",
"g%	c #74A4E3",
"h%	c #6EA0E2",
"i%	c #6A9DE1",
"j%	c #679AE0",
"k%	c #6599DF",
"l%	c #5F8CCC",
"m%	c #5C83BD",
"n%	c #5E84BF",
"o%	c #5F86C0",
"p%	c #6187C1",
"q%	c #7EAAE0",
"r%	c #A5C8F2",
"s%	c #B0CFF4",
"t%	c #ABCAF2",
"u%	c #A2C5F0",
"v%	c #9EC1EF",
"w%	c #99BEEE",
"x%	c #94BBED",
"y%	c #90B8EB",
"z%	c #8BB4EA",
"A%	c #86B1E9",
"B%	c #7CAAE6",
"C%	c #77A6E5",
"D%	c #72A2E3",
"E%	c #6B9EE1",
"F%	c #5780BC",
"G%	c #577EB8",
"H%	c #587FBA",
"I%	c #5980BB",
"J%	c #7DA7DA",
"K%	c #8AB5E8",
"L%	c #9BC2F1",
"M%	c #B1CEF4",
"N%	c #ADCCF3",
"O%	c #A9C9F2",
"P%	c #A4C6F1",
"Q%	c #9FC3F0",
"R%	c #9BC0EF",
"S%	c #97BDEE",
"T%	c #92B9EC",
"U%	c #8DB6EB",
"V%	c #88B3EA",
"W%	c #84AFE8",
"X%	c #7EABE7",
"Y%	c #699ADA",
"Z%	c #5077B3",
"`%	c #5279B4",
" &	c #537AB5",
".&	c #557CB6",
"+&	c #80AEE4",
"@&	c #93BCEE",
"#&	c #A6C9F3",
"$&	c #ABCBF3",
"%&	c #A2C5F1",
"&&	c #9EC2F0",
"*&	c #95BCED",
"=&	c #90B8EC",
"-&	c #86B2EA",
";&	c #5B88C6",
">&	c #4B72AD",
",&	c #4C74AE",
"'&	c #4E75AF",
")&	c #8CB6EA",
"!&	c #B1CFF4",
"~&	c #A8C9F2",
"{&	c #A0C4F0",
"]&	c #9BC1EF",
"^&	c #84B0E8",
"/&	c #4C76B1",
"(&	c #456DA6",
"_&	c #476FA7",
":&	c #4E72A9",
"<&	c #82AFE5",
"[&	c #95BEF0",
"}&	c #A5C8F3",
"|&	c #B0CEF4",
"1&	c #A7C9F2",
"2&	c #77A5E0",
"3&	c #4069A2",
"4&	c #4068A1",
"5&	c #456CA3",
"6&	c #8FB9EE",
"7&	c #AFCFF5",
"8&	c #B1D0F4",
"9&	c #3A639D",
"0&	c #3C649D",
"a&	c #95BFF0",
"b&	c #8EB9ED",
"c&	c #446EA9",
"d&	c #3B629B",
"                                                                                                                                ",
"                                                                                                                                ",
"                                                                                                                                ",
"                                                                                                                                ",
"                                                                                                                                ",
"                                                                                                                                ",
"                                          . + @ #                                                                               ",
"                                        $ % & * = . + @                                                                         ",
"                                        - ; > , ' % & * . ) +                                                                   ",
"                                      ! ~ { ] ^ / ; ( _ ' : & = . .                                                             ",
"                                      < [ } | ~ 1 { 2 - ; > ( 3 ' :                                                             ",
"                                    4 5 6 7 8 < 9 } 0 ~ a ] 2 / ; ( ,                                                           ",
"                                b c d e f 4 g 6 h 8 i < 9 } 0 ~ a { 2                                                           ",
"                                j k l m n o p q r 4 5 6 7 8 < [ } 0 ~ ~                                                         ",
"                              s t u v w x y z A B C D q r 4 5 E F G H I J                                                       ",
"                              K L M t N O v P Q R S T U V D f W X Y Z `  ...+.@.                                                ",
"                              #.$.%.&.*.=.-.;.>.,.'.).!.~.{.].^./.(._.:.<.[.}.|.1.2.3.                                          ",
"                            4.5.6.7.8.9.%.0.*.a.b.c.d.u e.f.y g.h.i.j./.(.k.l.m.n.o.p.q.r.s.J                                   ",
"                            t.u.v.w.x.y.z.A.B.C.D.E.L F.G.H.u I.w k J.K.L.M.N.O.P.Q.R.S.T.T.U.V.W.X.                            ",
"                          Y.Z.`. +t..+v.++@+y.#+$+B.C.D.E.%+F.t N u v w &+J.K.L.*+N.O.P.=+-+S.;+>+,+J                           ",
"                          '+)+!+~+{+]+ +^+u./+(+_+5.:+<+8.C.[+}+*.|+b.N >.1+2+x 3+4+5+6+7+/.8+_.:.m.9+                          ",
"                          0+a+b+'+)+!+~+{+`. +t..+/+(+c+5.6.<+8.$.[+}+*.|+b.c.>.1+2+x d+4+5+6+e+/.f+                            ",
"                        g+h+i+j+0+k+l+'+m+n+~+{+o+p+q+u.r+(+++s+6.z.t+9.u+D.v+a.F.w+d.u '.w x+J.y+z+                            ",
"                        A+B+C+D+E+i+j+0+k+l+F+)+n+~+{+o+p+^+.+r+/+++s+G+H+$+B.u+D.I+J+F.K+L+u M+N+O+                            ",
"                      P+Q+R+S+A+T+C+U+D+V+j+0+k+l+b+'+n+~+{+o+p+ +t.u./+W+c+X+n <+Y+C.[+I+Z+M t `+ @                            ",
"                      .@+@@@#@Q+R+$@A+B+%@g+D+i+j+0+k+l+b+'+)+~+{+o+p+q+t.u./+&@c+*@n =@8.$.[+-@;@>@,@                          ",
"                      '@)@!@.@~@{@#@Q+R+S+]@A+%@U+D+h+^@/@k+(@b+'+)+!+Y.o+`. +t.u.r+_@W+*@:@H+t+<@[@}@|@1@2@                    ",
"                    3@4@5@6@7@)@!@.@8@{@#@Q+R+S+]@T+%@U+D+V+^@/@9@(@b+'+)+!+Y.o+`. +t.u.r+0@W+a@b@c@d@e@f@}@|@|@g@              ",
"                    h@i@j@k@l@m@n@'@o@!@p@~@{@@@q@R+r@s@A+B+C+D+h+^@j+0+k+b+'+)+n+~+{+]+ +t.u.r+t@u@v@w@x@c@d@e@                ",
"                  y@z@A@B@C@D@E@F@G@H@6@'@)@!@.@~@I@@@Q+J@S+s@A+B+U+D+h+^@K@0+a+l+'+)+!+~+{+o+L@M@N@O@P@Q@v@R@x@                ",
"                  S@T@U@V@W@X@Y@Z@`@ #.#G@+#n@@###$#%#~@I@@@q@J@r@$@A+B+C+&#D+i+j+0+k+l+*#)+n+=#-#-#;#>#M@N@O@                  ",
"                  ,#'#)#!#~#{#]#^#/#C@(#_#:#<#[#H@n@@###}#p@~@I@@@q@Q+r@$@A+B+C+&#E+i+j+0+k+|#1#2#3#4#5#-#;#                    ",
"                  6#7#8#9#0#a#b#c#d#e#f#g#h#i#j#k#<#l#m#n@@###)@!@~@+@@@#@Q+R+$@A+T+%@g+D+V+n#o#p#q#r#s#t#4#                    ",
"                  u#v#w#x#y#z#A#B#C#D#E#F#G#/#H#I#J#:#K#L#[#M#n@@###)@!@N#8@{@#@Q+R+S+A+T+C+O#P#Q#R#S#T#U#                      ",
"                    V#W#X#Y#Z#`# $.$+$@$#$$$d#%$&$*$=$-$;$>$,$L#'$)$!$@#7@)@!@.@8@{@P+Q+R+S+~${$]$^$/$($                        ",
"                          _$:$<$Y#x#[$z#A#}$|$1$2$3$4$5$6$7$8$9$0$,$L#a$)$!$b$##)@!@.@8@I@c$d$e$f$g$h$i$                        ",
"                              j$k$l$m$n$o$p$.$q$r$s$t$u$v$w$x$y$z$A$B$C$,$D$'$)$H@n@@#)@!@E$F$G$H$I$J$                          ",
"                                  K$L$M$N$O$P$v#Q$R$S$T$U$V$W$X$Y$Z$`$ %.%+%@%,$#%'$)$H@b$$%%%&%*%=%                            ",
"                                        -%;%>%m$<$,%'%)%!%~%{%]%^%/%(%_%:%<%[%}%+%C$|%#%1%2%3%4%5%6%                            ",
"                                              7%8%9%O$P$v#0%R$a%b%c%V$d%}@e%f%g%h%i%j%k%l%m%n%o%p%                              ",
"                                                  q%W#r%s%<$t%'%u%v%w%x%y%z%A%1@B%C%D%E%F%G%H%I%                                ",
"                                                      J%K%L%9%M%N%O%P%Q%R%S%T%U%V%W%X%Y%Z%`% &.&                                ",
"                                                            +&@&#&s%9%$&X#%&&&S$*&=&-&;&>&,&'&                                  ",
"                                                                  )&8%9%!&N%~&P%{&]&^&/&(&_&:&                                  ",
"                                                                      <&[&}&!&|&$&1&2&3&4&5&                                    ",
"                                                                            6&8%7&8&2&9&0&                                      ",
"                                                                                  a&b&c&d&                                      ",
"                                                                                                                                ",
"                                                                                                                                ",
"                                                                                                                                ",
"                                                                                                                                ",
"                                                                                                                                ",
"                                                                                                                                ",
"                                                                                                                                ",
"                                                                                                                                ",
"                                                                                                                                ",
"                                                                                                                                ",
"                                                                                                                                ",
"                                                                                                                                ",
"                                                                                                                                ",
"                                                                                                                                ",
"                                                                                                                                ",
"                                                                                                                                ",
"                                                                                                                                "};
