/* XPM */
static char * record_32x32_xpm[] = {
"32 32 104 2",
"  	c None",
". 	c #333333",
"+ 	c #3F3F3F",
"@ 	c #555555",
"# 	c #757575",
"$ 	c #868686",
"% 	c #929292",
"& 	c #949494",
"* 	c #888888",
"= 	c #797979",
"- 	c #5A5A5A",
"; 	c #424242",
"> 	c #343434",
", 	c #414141",
"' 	c #6F6F6F",
") 	c #9B9B9B",
"! 	c #AEAEAE",
"~ 	c #B3B3B3",
"{ 	c #B0B0B0",
"] 	c #9F9F9F",
"^ 	c #464646",
"/ 	c #9D9D9D",
"( 	c #B2B2B2",
"_ 	c #A4A4A4",
": 	c #666666",
"< 	c #363636",
"[ 	c #676767",
"} 	c #767676",
"| 	c #383838",
"1 	c #656565",
"2 	c #777777",
"3 	c #585858",
"4 	c #ADADAD",
"5 	c #3E3E3E",
"6 	c #9A9A9A",
"7 	c #A5A5A5",
"8 	c #484848",
"9 	c #6A6A6A",
"0 	c #7C7C7C",
"a 	c #353535",
"b 	c #3B3B3B",
"c 	c #969696",
"d 	c #A8A8A8",
"e 	c #B1B1B1",
"f 	c #ABABAB",
"g 	c #A7A7A7",
"h 	c #AFAFAF",
"i 	c #A2A2A2",
"j 	c #454545",
"k 	c #4F4F4F",
"l 	c #898989",
"m 	c #565656",
"n 	c #A6A6A6",
"o 	c #4A4A4A",
"p 	c #616161",
"q 	c #A1A1A1",
"r 	c #727272",
"s 	c #4D4D4D",
"t 	c #494949",
"u 	c #8E8E8E",
"v 	c #5F5F5F",
"w 	c #575757",
"x 	c #3D3D3D",
"y 	c #909090",
"z 	c #393939",
"A 	c #505050",
"B 	c #ACACAC",
"C 	c #5D5D5D",
"D 	c #525252",
"E 	c #808080",
"F 	c #7A7A7A",
"G 	c #535353",
"H 	c #939393",
"I 	c #747474",
"J 	c #989898",
"K 	c #737373",
"L 	c #8F8F8F",
"M 	c #878787",
"N 	c #6E6E6E",
"O 	c #696969",
"P 	c #4B4B4B",
"Q 	c #3A3A3A",
"R 	c #606060",
"S 	c #828282",
"T 	c #9C9C9C",
"U 	c #444444",
"V 	c #9E9E9E",
"W 	c #474747",
"X 	c #595959",
"Y 	c #7F7F7F",
"Z 	c #8A8A8A",
"` 	c #404040",
" .	c #707070",
"..	c #5E5E5E",
"+.	c #959595",
"@.	c #8B8B8B",
"#.	c #686868",
"$.	c #626262",
"%.	c #636363",
"&.	c #373737",
"*.	c #6C6C6C",
"=.	c #999999",
"-.	c #818181",
";.	c #848484",
"                                                                ",
"                                                                ",
"                      . . . . . . . . . .                       ",
"                  . . + @ # $ % & * = - ; > .                   ",
"              . . , ' ) ! ~ ~ ~ ~ ~ ~ { ] = ^ > .               ",
"            . > - / ( ~ ~ ~ ~ ~ ~ ~ ~ ~ ~ ~ _ : < .             ",
"          . < [ ! ~ ~ ~ ~ ~ ~ ~ ~ ~ ~ ~ ~ ~ ~ ( } | .           ",
"        . > 1 ( ~ ~ ~ ~ ~ ~ ~ ~ ~ ~ ~ ~ ~ ~ ~ ~ ~ 2 < .         ",
"        . 3 4 ~ ~ ~ ~ ~ ~ ~ ~ ~ ~ ~ ~ ~ ~ ~ ~ ~ ~ ( [ >         ",
"      . 5 6 ~ ~ ~ ~ ~ ~ ~ ~ ~ ~ ~ ~ ~ ~ ~ ~ ~ ~ ~ ~ 7 8 .       ",
"      . 9 ( ~ ~ ~ ~ ~ ~ ~ ~ ~ ~ ~ ~ ~ ~ ~ ~ ~ ~ ~ ~ ~ 0 a       ",
"    . b c ~ ~ ( ~ ! ! ~ ~ ~ 4 d e ~ ~ ~ ~ ( f g h ~ ~ i j .     ",
"    . k f ( l 3 $ m - n 7 ' k o p q ~ ~ n r s t m u ( e v .     ",
"    . 9 ~ ! w . > . x y m > z b . A 7 B C . . a . D B ~ E .     ",
"    . F ~ 4 G . a C H I > , u J ^ . K L < < : M N $ e ~ y .     ",
"    . M ~ 4 G . C e ( D . ^ O O s . w N . k e ~ ~ ~ ~ ~ 6 a     ",
"    . $ ~ 4 G . r ~ h P . a | | | Q [ R . - ~ ~ ~ ~ ~ ~ 6 a     ",
"    . F ~ 4 G . K ~ ~ C . t _ f i S ) = . , T ( i n ~ ~ L .     ",
"    . 9 ~ 4 G . K ~ ~ u Q > 8 m U < : V U > 5 W 5 X 4 ~ Y .     ",
"    . k f e O z Z ~ ~ h F ` . . a P H ( Z ^ > . z  .{ e ...     ",
"    . Q +.~ d c { ~ ~ ~ e V l E y g ~ ~ ( i @.E +.h ~ q U .     ",
"      . #.( ~ ~ ~ ~ ~ ~ ~ ~ ~ ~ ~ ~ ~ ~ ~ ~ ~ ~ ~ ~ ~ F >       ",
"      . x J ~ ~ ~ ~ ~ ~ ~ ~ ~ ~ ~ ~ ~ ~ ~ ~ ~ ~ ~ ~ _ W .       ",
"        . @ B ~ ~ ~ ~ ~ ~ ~ ~ ~ ~ ~ ~ ~ ~ ~ ~ ~ ~ e 1 >         ",
"        . > $.e ~ ~ ~ ~ ~ ~ ~ ~ ~ ~ ~ ~ ~ ~ ~ ~ ~ # a .         ",
"          . a %.4 ~ ~ ~ ~ ~ ~ ~ ~ ~ ~ ~ ~ ~ ~ e K &..           ",
"            . > m 6 ( ~ ~ ~ ~ ~ ~ ~ ~ ~ ~ ~ q %.a .             ",
"              . . + *.=.4 ~ ~ ~ ~ ~ ~ h / # U . .               ",
"                  . . x D  .-.u y ;.# w ` > .                   ",
"                      . . . . . . . . . .                       ",
"                                                                ",
"                                                                "};
