/* XPM */
static const char * record_60x60_xpm[] = {
"60 60 122 2",
"  	c None",
". 	c #333333",
"+ 	c #343434",
"@ 	c #323232",
"# 	c #363636",
"$ 	c #555555",
"% 	c #787878",
"& 	c #868686",
"* 	c #929292",
"= 	c #9E9E9E",
"- 	c #ABABAB",
"; 	c #AFAFAF",
"> 	c #A3A3A3",
", 	c #969696",
"' 	c #898989",
") 	c #7D7D7D",
"! 	c #636363",
"~ 	c #3C3C3C",
"{ 	c #373737",
"] 	c #5B5B5B",
"^ 	c #848484",
"/ 	c #AAAAAA",
"( 	c #B3B3B3",
"_ 	c #B1B1B1",
": 	c #919191",
"< 	c #686868",
"[ 	c #3F3F3F",
"} 	c #353535",
"| 	c #666666",
"1 	c #A5A5A5",
"2 	c #7A7A7A",
"3 	c #3E3E3E",
"4 	c #5E5E5E",
"5 	c #A0A0A0",
"6 	c #ADADAD",
"7 	c #737373",
"8 	c #393939",
"9 	c #383838",
"0 	c #8A8A8A",
"a 	c #A2A2A2",
"b 	c #484848",
"c 	c #424242",
"d 	c #9B9B9B",
"e 	c #ACACAC",
"f 	c #595959",
"g 	c #505050",
"h 	c #A8A8A8",
"i 	c #B2B2B2",
"j 	c #6E6E6E",
"k 	c #4E4E4E",
"l 	c #707070",
"m 	c #404040",
"n 	c #989898",
"o 	c #4A4A4A",
"p 	c #858585",
"q 	c #535353",
"r 	c #7B7B7B",
"s 	c #5A5A5A",
"t 	c #828282",
"u 	c #9C9C9C",
"v 	c #464646",
"w 	c #4B4B4B",
"x 	c #747474",
"y 	c #8C8C8C",
"z 	c #999999",
"A 	c #949494",
"B 	c #818181",
"C 	c #909090",
"D 	c #8D8D8D",
"E 	c #808080",
"F 	c #9D9D9D",
"G 	c #6B6B6B",
"H 	c #8B8B8B",
"I 	c #6A6A6A",
"J 	c #646464",
"K 	c #585858",
"L 	c #454545",
"M 	c #7E7E7E",
"N 	c #4F4F4F",
"O 	c #6D6D6D",
"P 	c #838383",
"Q 	c #7F7F7F",
"R 	c #575757",
"S 	c #6C6C6C",
"T 	c #717171",
"U 	c #3B3B3B",
"V 	c #414141",
"W 	c #767676",
"X 	c #878787",
"Y 	c #4C4C4C",
"Z 	c #434343",
"` 	c #7C7C7C",
" .	c #A1A1A1",
"..	c #4D4D4D",
"+.	c #616161",
"@.	c #A7A7A7",
"#.	c #B0B0B0",
"$.	c #8F8F8F",
"%.	c #3D3D3D",
"&.	c #979797",
"*.	c #656565",
"=.	c #888888",
"-.	c #474747",
";.	c #696969",
">.	c #676767",
",.	c #525252",
"'.	c #A4A4A4",
").	c #6F6F6F",
"!.	c #9F9F9F",
"~.	c #626262",
"{.	c #5D5D5D",
"].	c #757575",
"^.	c #5C5C5C",
"/.	c #939393",
"(.	c #959595",
"_.	c #A9A9A9",
":.	c #5F5F5F",
"<.	c #565656",
"[.	c #AEAEAE",
"}.	c #3A3A3A",
"|.	c #A6A6A6",
"1.	c #8E8E8E",
"                                                                                                                        ",
"                                                                                                                        ",
"                                                                                                                        ",
"                                                . . . . . . . . . + @ @                                                 ",
"                                          @ . . . . . . . . . . . . . . . . @                                           ",
"                                      . . . . . . . . . . . . . . . . . . . . . . +                                     ",
"                                  . . . . . . # $ % & * = - ; > , ' ) ! ~ . . . . . .                                   ",
"                              . . . . . { ] ^ / ( ( ( ( ( ( ( ( ( ( ( ( _ : < [ . . . . .                               ",
"                            . . . . } | 1 ( ( ( ( ( ( ( ( ( ( ( ( ( ( ( ( ( ( ; 2 3 . . . . .                           ",
"                          . . . + 4 5 ( ( ( ( ( ( ( ( ( ( ( ( ( ( ( ( ( ( ( ( ( ( 6 7 8 . . . @                         ",
"                      @ . . . 9 0 ( ( ( ( ( ( ( ( ( ( ( ( ( ( ( ( ( ( ( ( ( ( ( ( ( ( a b . . . .                       ",
"                    . . . . c d ( ( ( ( ( ( ( ( ( ( ( ( ( ( ( ( ( ( ( ( ( ( ( ( ( ( ( ( e f . . . .                     ",
"                    . . . g h ( ( ( ( ( ( ( ( ( ( ( ( ( ( ( ( ( ( ( ( ( ( ( ( ( ( ( ( ( ( i j . . . +                   ",
"                  . . . k ; ( ( ( ( ( ( ( ( ( ( ( ( ( ( ( ( ( ( ( ( ( ( ( ( ( ( ( ( ( ( ( ( ( l . . . +                 ",
"                . . . m 1 ( ( ( ( ( ( ( ( ( ( ( ( ( ( ( ( ( ( ( ( ( ( ( ( ( ( ( ( ( ( ( ( ( ( i ] . . .                 ",
"              . . . { n ( ( ( ( ( ( ( ( ( ( ( ( ( ( ( ( ( ( ( ( ( ( ( ( ( ( ( ( ( ( ( ( ( ( ( ( 6 o . . .               ",
"              . . . p ( ( ( ( ( ( ( ( ( ( ( ( ( ( ( ( ( ( ( ( ( ( ( ( ( ( ( ( ( ( ( ( ( ( ( ( ( ( > ~ . . +             ",
"            + . . q ( ( ( ( ( ( ( ( ( ( ( ( ( ( ( ( ( ( ( ( ( ( ( ( ( ( ( ( ( ( ( ( ( ( ( ( ( ( ( ( r . . .             ",
"            . . . , ( ( ( ( ( ( ( ( ( ( ( ( ( ( ( ( ( ( ( ( ( ( ( ( ( ( ( ( ( ( ( ( ( ( ( ( ( ( ( ( ; c . . @           ",
"          . . . s ( ( ( ( ( ( ( ( ( ( ( ( ( ( ( ( ( ( ( ( ( ( ( ( ( ( ( ( ( ( ( ( ( ( ( ( ( ( ( ( ( ( t . . .           ",
"          . . . u ( ( ( ( ( ( ( ( ( ( ( ( ( ( ( ( ( ( ( ( ( ( ( ( ( ( ( ( ( ( ( ( ( ( ( ( ( ( ( ( ( ( i v . .           ",
"          . . w ( ( ( ( ( ( ( ( ( ( ( ( ( ( ( ( ( ( ( ( ( ( ( ( ( ( ( ( ( ( ( ( ( ( ( ( ( ( ( ( ( ( ( ( 7 . . .         ",
"        @ . . x ( ( ( ( ( e i ( ( 6 y z ( ( ( ( ( ( 6 A B C h ( ( ( ( ( ( ( ( ( ( > D E 0 d i ( ( ( ( ( u . . .         ",
"        . . . F ( ( ( ( G { 3 H : ~ . . I ( ( ( z k + . . . # J / ( ( ( ( ( ( z K + . . . . L M ( ( ( ( ( L . .         ",
"        . . L ( ( ( ( 5 . . . { } . . . { 6 i % # . . . . . . . N 6 ( ( ( ( p { . . . . . . . . n ( ( ( ( O . . +       ",
"        . . ! ( ( ( ( P . . . . . . . . L i Q . . . . . . . . . . R _ ( ( z + . . . . . . . . . S ( ( ( ( y . . .       ",
"      @ . . T ( ( ( ( P . . . . . . . $ , h U . . . V W X 4 . . . . 7 ( ( Y . . . . . Z L . . . : ( ( ( ( z . . .       ",
"      . . . ` ( ( ( ( P . . . . . ] d ( ( < . . . ~  .( ( ( I . . . ..( h . . . . g a ( ( > M d ( ( ( ( ( 1 . . .       ",
"      . . . ' ( ( ( ( P . . . . r ( ( ( ( o . . . +.@.@.@.@.u + . . + 6 ' . . . U h ( ( ( ( ( ( ( ( ( ( ( #.+ . .       ",
"      . . . , ( ( ( ( P . . . . = ( ( ( ; } . . . . . . . . . . . . . $.S . . . $ ( ( ( ( ( ( ( ( ( ( ( ( ( %.. .       ",
"      . . . A ( ( ( ( P . . . 9 i ( ( (  .. . . . . . . . . . . . . . &.$ . . . *.( ( ( ( ( ( ( ( ( ( ( ( ( ~ . .       ",
"      + . . =.( ( ( ( P . . . U ( ( ( ( #.} . . . 8 3 3 3 3 3 3 3 -.;.( >.. . . q ( ( ( ( ( ( ( ( ( ( ( ( #.. . .       ",
"      @ . . ` ( ( ( ( P . . . U ( ( ( ( ( b . . . ,.( ( ( ( ( ( ( i ( ( ` . . . 8 '.( ( ( ( ( ( ( ( ( ( ( '.. . .       ",
"      . . . ).( ( ( ( P . . . U ( ( ( ( ( J . . . . P ( ( ( _ & q 8 x ( z . . . . g !.( ; z 7 E ( ( ( ( ( &.. . .       ",
"        . . ~.( ( ( ( P . . . U ( ( ( ( ( '.9 . . . . v K q ~ . . . # / ( {.. . . . . [ + . . . t ( ( ( ( 0 . . .       ",
"        . . Z ( ( ( ( p . . . ~ ( ( ( ( ( ( ].. . . . . . . . . . . w i ( > { . . . . . . . . . l ( ( ( ( G . . .       ",
"        . . . d ( ( ( '.+ . . ^.( ( ( ( ( ( #.).+ . . . . . . . . U /.( ( ( /.m . . . . . . . 8 h ( ( ( ( c . .         ",
"        . . . T ( ( ( ( W 3 ,.d ( ( ( ( ( ( ( ( (.N { . . . . m ].e ( ( ( ( ( _.:.U . . . + ~.!.( ( ( ( z . . .         ",
"          . . b ( ( ( ( ( i ( ( ( ( ( ( ( ( ( ( ( ( _ u y d e ( ( ( ( ( ( ( ( ( ( i  .D z e ( ( ( ( ( ( T . . .         ",
"          . . . n ( ( ( ( ( ( ( ( ( ( ( ( ( ( ( ( ( ( ( ( ( ( ( ( ( ( ( ( ( ( ( ( ( ( ( ( ( ( ( ( ( ( #.Z . .           ",
"          . . . <.( ( ( ( ( ( ( ( ( ( ( ( ( ( ( ( ( ( ( ( ( ( ( ( ( ( ( ( ( ( ( ( ( ( ( ( ( ( ( ( ( ( M . . .           ",
"            . . . * ( ( ( ( ( ( ( ( ( ( ( ( ( ( ( ( ( ( ( ( ( ( ( ( ( ( ( ( ( ( ( ( ( ( ( ( ( ( ( ( [.[ . . +           ",
"            . . . k ( ( ( ( ( ( ( ( ( ( ( ( ( ( ( ( ( ( ( ( ( ( ( ( ( ( ( ( ( ( ( ( ( ( ( ( ( ( ( ( W . . .             ",
"              . . . M ( ( ( ( ( ( ( ( ( ( ( ( ( ( ( ( ( ( ( ( ( ( ( ( ( ( ( ( ( ( ( ( ( ( ( ( ( ( 5 }.. . .             ",
"              . . . # /.( ( ( ( ( ( ( ( ( ( ( ( ( ( ( ( ( ( ( ( ( ( ( ( ( ( ( ( ( ( ( ( ( ( ( ( / v . . .               ",
"                . . . ~ a ( ( ( ( ( ( ( ( ( ( ( ( ( ( ( ( ( ( ( ( ( ( ( ( ( ( ( ( ( ( ( ( ( ( i $ . . .                 ",
"                  . . . b e ( ( ( ( ( ( ( ( ( ( ( ( ( ( ( ( ( ( ( ( ( ( ( ( ( ( ( ( ( ( ( ( ( I . . . @                 ",
"                    . . . w > ( ( ( ( ( ( ( ( ( ( ( ( ( ( ( ( ( ( ( ( ( ( ( ( ( ( ( ( ( ( #.| . . . .                   ",
"                    . . . . 3 (.( ( ( ( ( ( ( ( ( ( ( ( ( ( ( ( ( ( ( ( ( ( ( ( ( ( ( ( _.q . . . .                     ",
"                      . . . . # t ( ( ( ( ( ( ( ( ( ( ( ( ( ( ( ( ( ( ( ( ( ( ( ( ( ( F Z . . . .                       ",
"                          . . . . $ z ( ( ( ( ( ( ( ( ( ( ( ( ( ( ( ( ( ( ( ( ( ( h G # . . . +                         ",
"                            . . . . + 4 5 ( ( ( ( ( ( ( ( ( ( ( ( ( ( ( ( ( ( 6 7 8 . . . .                             ",
"                              @ . . . . + q ` 1 ( ( ( ( ( ( ( ( ( ( ( ( 6 ' :.}.. . . . .                               ",
"                                  . . . . . . . ..l M 0 , > |.d 1.t W s { . . . . . .                                   ",
"                                      . . . . . . . . . . . . . . . . . . . . . . +                                     ",
"                                          . . . . . . . . . . . . . . . . . .                                           ",
"                                                  + . . . . . . . @ . .                                                 ",
"                                                                                                                        ",
"                                                                                                                        ",
"                                                                                                                        "};
