/* XPM */
static char * remove_32x32_xpm[] = {
"32 32 112 2",
"  	c None",
". 	c #333333",
"+ 	c #535353",
"@ 	c #6A6A6A",
"# 	c #565656",
"$ 	c #888888",
"% 	c #B3B3B3",
"& 	c #B2B2B2",
"* 	c #B0B0B0",
"= 	c #A8A8A8",
"- 	c #B1B1B1",
"; 	c #909090",
"> 	c #929292",
", 	c #5E5E5E",
"' 	c #6B6B6B",
") 	c #9E9E9E",
"! 	c #919191",
"~ 	c #5F5F5F",
"{ 	c #4C4C4C",
"] 	c #7C7C7C",
"^ 	c #ACACAC",
"/ 	c #525252",
"( 	c #353535",
"_ 	c #3A3A3A",
": 	c #686868",
"< 	c #A5A5A5",
"[ 	c #676767",
"} 	c #373737",
"| 	c #363636",
"1 	c #4D4D4D",
"2 	c #A9A9A9",
"3 	c #AEAEAE",
"4 	c #575757",
"5 	c #636363",
"6 	c #474747",
"7 	c #343434",
"8 	c #464646",
"9 	c #8F8F8F",
"0 	c #969696",
"a 	c #494949",
"b 	c #646464",
"c 	c #656565",
"d 	c #898989",
"e 	c #7F7F7F",
"f 	c #6D6D6D",
"g 	c #838383",
"h 	c #3C3C3C",
"i 	c #383838",
"j 	c #626262",
"k 	c #4B4B4B",
"l 	c #949494",
"m 	c #ABABAB",
"n 	c #515151",
"o 	c #707070",
"p 	c #737373",
"q 	c #5A5A5A",
"r 	c #A6A6A6",
"s 	c #AFAFAF",
"t 	c #717171",
"u 	c #393939",
"v 	c #3F3F3F",
"w 	c #7E7E7E",
"x 	c #959595",
"y 	c #424242",
"z 	c #797979",
"A 	c #545454",
"B 	c #4E4E4E",
"C 	c #9D9D9D",
"D 	c #616161",
"E 	c #727272",
"F 	c #757575",
"G 	c #3B3B3B",
"H 	c #444444",
"I 	c #A4A4A4",
"J 	c #7A7A7A",
"K 	c #7D7D7D",
"L 	c #5C5C5C",
"M 	c #505050",
"N 	c #777777",
"O 	c #4A4A4A",
"P 	c #8A8A8A",
"Q 	c #595959",
"R 	c #7B7B7B",
"S 	c #696969",
"T 	c #5D5D5D",
"U 	c #ADADAD",
"V 	c #9C9C9C",
"W 	c #939393",
"X 	c #3D3D3D",
"Y 	c #747474",
"Z 	c #9B9B9B",
"` 	c #6F6F6F",
" .	c #555555",
"..	c #787878",
"+.	c #767676",
"@.	c #434343",
"#.	c #3E3E3E",
"$.	c #989898",
"%.	c #848484",
"&.	c #404040",
"*.	c #8C8C8C",
"=.	c #A0A0A0",
"-.	c #414141",
";.	c #454545",
">.	c #6E6E6E",
",.	c #585858",
"'.	c #666666",
").	c #484848",
"!.	c #979797",
"~.	c #9A9A9A",
"{.	c #AAAAAA",
"].	c #828282",
"                                                                ",
"                                                                ",
"    . . . . . . . . . . . . . . . . . . . . . . . . . . . .     ",
"    . + @ @ @ @ @ @ @ @ @ @ @ @ @ @ @ @ @ @ @ @ @ @ @ @ # .     ",
"    . $ % % & % % % % % % % % % % % % % % % % % * = - % ; .     ",
"    . $ % > , ' ) * % % % % % % % % % % % % * ! ~ { ] - ! .     ",
"    . $ ^ / . ( _ : < % % % % % % % % % % < [ } | . 1 2 ! .     ",
"    . $ 3 4 } 5 6 7 8 9 % % % % % % % % 0 8 7 a b | c & ! .     ",
"    . $ % d 7 # e 5 _ } f ^ % % % % & g h i j e k ( l % ! .     ",
"    . $ % m n | o e p a ( q r % % s t u v f w b 7 5 s % ! .     ",
"    . $ % % x _ y z e z A | B C 2 D | 6 E e F G H I % % ! .     ",
"    . $ % % & J . + K e ] L } H n ( M N e J O ( P & % % ! .     ",
"    . $ % % % s Q | , w e w c _ | Q R e ] A ( S & % % % ! .     ",
"    . $ % % % % < { i b w e e t @ w e w T | Q U % % % % ! .     ",
"    . $ % % % % % V H _ ' e e e e e e [ i { < % % % % % ! .     ",
"    . $ % % % % % % W X X Y e e e e p h y Z % % % % % % ! .     ",
"    . $ % % % % % % < O u ` e e e e f } { < % % % % % % ! .     ",
"    . $ % % % % % ^ Q | , w e e e e w T | Q ^ % % % % % ! .     ",
"    . $ % % % % - : (  .] e e ..+.e e ] A ( : * % % % % ! .     ",
"    . $ % % % % R } { z e e t @.#.S w e z { | z % % % % ! .     ",
"    . $ % % % Z _ y F e w f v u #.u j K e +.@._ $.% % % ! .     ",
"    . $ % % ^ + | ' e w S h h %.0 6 } q ] e f } 1 2 % % ! .     ",
"    . $ % & N . 4 w w 5 u &.*.% % =.n ( n ..w L . f - % ! .     ",
"    . $ % < -.v K R + ( ;.0 % % % % = , 7 -.>.w ;.G ) % ! .     ",
"    . $ % F 7 b f y 7 L < % % % % % % * ] G | ,.c ( '.& ! .     ",
"    . $ s 4 ( ).| _ N U % % % % % % % % & !.M 7 _ 7 A U ! .     ",
"    . $ & o ( _ j ~.- % % % % % % % % % % % {.].1 #.F & ! .     ",
"    . $ % U 0 C * % % % % % % % % % % % % % % % 2 =.3 % ! .     ",
"    . >.x x x x x x x x x x x x x x x x x x x x x x x x F .     ",
"    . . . . . . . . . . . . . . . . . . . . . . . . . . . .     ",
"                                                                ",
"                                                                "};
