/* XPM */
static char * rename_32x32_xpm[] = {
"32 32 2 1",
" 	c None",
".	c #333333",
"                                ",
"                                ",
"                                ",
"                                ",
"                       ......   ",
"                      ........  ",
"                      ........  ",
"         ....           ...     ",
"        ......           ..     ",
"        ......           ..     ",
"       .......           ..     ",
"       ........          ..     ",
"      .... ....          ..     ",
"      ....  ...          ..     ",
"      ....  ....         ..     ",
"     ....   ....         ..     ",
"     ....   .....        ..     ",
"     ....    ....        ..     ",
"    .............        ..     ",
"    ..............       ..     ",
"   ...............       ..     ",
"   ...............       ..     ",
"   ....       .....      ..     ",
"   ....        ....      ..     ",
"  ....         ....      ..     ",
"   ...          ...   .......   ",
"                      ........  ",
"                      ........  ",
"                                ",
"                                ",
"                                ",
"                                "};
