/* XPM */
static char * save_60x60_xpm[] = {
"60 60 79 1",
" 	c None",
".	c #323232",
"+	c #333333",
"@	c #353535",
"#	c #6F6F6F",
"$	c #787878",
"%	c #4B4B4B",
"&	c #686868",
"*	c #969696",
"=	c #6D6D6D",
"-	c #464646",
";	c #6E6E6E",
">	c #393939",
",	c #3E3E3E",
"'	c #7F7F7F",
")	c #4D4D4D",
"!	c #7D7D7D",
"~	c #BFBFBF",
"{	c #818181",
"]	c #424242",
"^	c #575757",
"/	c #A2A2A2",
"(	c #868686",
"_	c #484848",
":	c #727272",
"<	c #ABABAB",
"[	c #343434",
"}	c #3C3C3C",
"|	c #525252",
"1	c #878787",
"2	c #585858",
"3	c #3B3B3B",
"4	c #BBBBBB",
"5	c #5B5B5B",
"6	c #5F5F5F",
"7	c #606060",
"8	c #565656",
"9	c #7E7E7E",
"0	c #BCBCBC",
"a	c #AEAEAE",
"b	c #363636",
"c	c #767676",
"d	c #8B8B8B",
"e	c #4E4E4E",
"f	c #3F3F3F",
"g	c #404040",
"h	c #626262",
"i	c #A8A8A8",
"j	c #8C8C8C",
"k	c #A0A0A0",
"l	c #8E8E8E",
"m	c #444444",
"n	c #535353",
"o	c #747474",
"p	c #505050",
"q	c #4A4A4A",
"r	c #6B6B6B",
"s	c #373737",
"t	c #7B7B7B",
"u	c #383838",
"v	c #5C5C5C",
"w	c #666666",
"x	c #BEBEBE",
"y	c #C3C3C3",
"z	c #3D3D3D",
"A	c #999999",
"B	c #515151",
"C	c #9A9A9A",
"D	c #494949",
"E	c #8F8F8F",
"F	c #C2C2C2",
"G	c #414141",
"H	c #474747",
"I	c #6C6C6C",
"J	c #6A6A6A",
"K	c #555555",
"L	c #545454",
"M	c #5D5D5D",
"N	c #696969",
"                                                            ",
"                                                            ",
"                                                            ",
"      .++++++++++++++++++++++++++++++++++++++++++           ",
"     +++++++++++++++++++++++++++++++++++++++++++++          ",
"    +++++++++++++++++++++++++++++++++++++++++++++++         ",
"    ++@#$$$$$$%++&*******************=++-$$$$$$;>+++        ",
"    ++,''''''')++!~{]++++^/~~~~~~~~~~(++_''''''':>+++       ",
"    ++,''''''')++!<[[}}}>+|~~~~~~~~~~(++_'''''''':>+++      ",
"    ++,''''''')++!1+2''''3+4~~~~~~~~~(++_''''''''':>+++     ",
"    ++,''''''')++!(+5'''',+4~~~~~~~~~(++_'''''''''':>+++    ",
"    ++,''''''')++!(+5'''',+4~~~~~~~~~(++_''''''''''':>++[   ",
"    ++,''''''')++!(+5'''',+4~~~~~~~~~(++_''''''''''''6+++   ",
"    ++,''''''')++!(+5'''',+4~~~~~~~~~(++_''''''''''''7+++   ",
"    ++,''''''')++!(+5'''',+4~~~~~~~~~(++_''''''''''''7+++   ",
"    ++,''''''')++!1+8'''93[0~~~~~~~~~(++_''''''''''''7+++   ",
"    ++,''''''')++!a[+bbb[+^~~~~~~~~~~(++_''''''''''''7+++   ",
"    ++,''''''')++c~defffghi~~~~~~~~~~'++_''''''''''''7+++   ",
"    ++,'''''''2++gjkkkkkkkkkkkkkkkkklm++n''''''''''''7+++   ",
"    ++,'''''''$@++++++++++++++++++++++++o''''''''''''7+++   ",
"    ++,''''''''p+++++++++++++++++++++++q'''''''''''''7+++   ",
"    ++,'''''''''=p3>>>>>>>>>>>>>>>>>3er''''''''''''''7+++   ",
"    ++,''''''''''''''''''''''''''''''''''''''''''''''7+++   ",
"    ++,'':p>sssssssssssssssssssssssssssssssssssss]79'7+++   ",
"    ++,'tu+s3333333333333333333333333333333333333++v'7+++   ",
"    ++,'6+wxyyyyyyyyyyyyyyyyyyyyyyyyyyyyyyyyyyyyy/[z'7+++   ",
"    ++,'|+Ayyyyyyyyyyyyyyyyyyyyyyyyyyyyyyyyyyyyyyy_+!7+++   ",
"    ++,'B+CyyyyyyyyyyyyyyyyyyyyyyyyyyyyyyyyyyyyyyyD+!7+++   ",
"    ++,'B+CyyyyyyyyyyyyyyyyyyyyyyyyyyyyyyyyyyyyyyyD+!7+++   ",
"    ++,'B+CyyyyyyyyyyyyyyyyyyyyyyyyyyyyyyyyyyyyyyyD+!7+++   ",
"    ++,'B+CyyyyyyyyyyyyyyyyyyyyyyyyyyyyyyyyyyyyyyyD+!7+++   ",
"    ++,'B+CyyyyyyyyyyyyyyyyyyyyyyyyyyyyyyyyyyyyyyyD+!7+++   ",
"    ++,'B+CyyyyyyyyyyyyyyyyyyyyyyyyyyyyyyyyyyyyyyyD+!7+++   ",
"    ++,'B+CyyyyyyyyyyyyyyyyyyyyyyyyyyyyyyyyyyyyyyyD+!7+++   ",
"    ++,'B+CyyyyyyyyyyyyyyyyyyyyyyyyyyyyyyyyyyyyyyyD+!7+++   ",
"    ++,'B+CyyyyyyyyyyyyyyyyyyyyyyyyyyyyyyyyyyyyyyyD+!7+++   ",
"    ++,'B+CyyyyyyyyyyyyyyyyyyyyyyyyyyyyyyyyyyyyyyyD+!7+++   ",
"    ++,'B+CyyyyyyyyyyyyyyyyyyyyyyyyyyyyyyyyyyyyyyyD+!7+++   ",
"    ++,'B+CyyyyyyyyyyyyyyyyyyyyyyyyyyyyyyyyyyyyyyyD+!7+++   ",
"    ++,'B+CyyyyyyyyyyyyyyyyyyyyyyyyyyyyyyyyyyyyyyyD+!7+++   ",
"    ++,'B+CyyyyyyyyyyyyyyyyyyyyyyyyyyyyyyyyyyyyyyyD+!7+++   ",
"    ++,'B+CyyyyyyyyyyyyyyyyyyyyyyyyyyyyyyyyyyyyyyyD+!7+++   ",
"    ++,'B+CyyyyyyyyyyyyyyyyyyyyyyyyyyyyyyyyyyyyyyyD+!7+++   ",
"    ++,'B+CyyyyyyyyyyyyyyyyyyyyyyyyyyyyyyyyyyyyyyyD+!7+++   ",
"    ++,'B+CyyyyyyyyyyyyyyyyyyyyyyyyyyyyyyyyyyyyyyyD+!7+++   ",
"    ++,'B+CyyyyyyyyyyyyyyyyyyyyyyyyyyyyyyyyyyyyyyyD+!7+++   ",
"    ++,'B+CyyyyyyyyyyyyyyyyyyyyyyyyyyyyyyyyyyyyyyyD+!7+++   ",
"    ++,'B+CyyyyyyyyyyyyyyyyyyyyyyyyyyyyyyyyyyyyyyyD+!7+++   ",
"    ++,'B+CyyyyyyyyyyyyyyyyyyyyyyyyyyyyyyyyyyyyyyyD+!7+++   ",
"    ++,'B+CyyyyyyyyyyyyyyyyyyyyyyyyyyyyyyyyyyyyyyyD+!7+++   ",
"    ++,'n+EyyyyyyyyyyyyyyyyyyyyyyyyyyyyyyyyyyyyyyFG[97+++   ",
"    ++,'r+_j*************************************=+H'7+++   ",
"    ++,''H++++++++++++++++++++++++++++++++++++++++bI'7+++   ",
"    ++,'''JKLLLLLLLLLLLLLLLLLLLLLLLLLLLLLLLLLLLLLM$''7+++   ",
"    +++7NNNNNNNNNNNNNNNNNNNNNNNNNNNNNNNNNNNNNNNNNNNNNm++[   ",
"    ++++++++++++++++++++++++++++++++++++++++++++++++++++    ",
"     ++++++++++++++++++++++++++++++++++++++++++++++++++.    ",
"      +++++++++++++++++++++++++++++++++++++++++++++++.      ",
"                                                            ",
"                                                            "};
