/* XPM */
static char * skip_back_32x32_xpm[] = {
"32 32 99 2",
"  	c None",
". 	c #333333",
"+ 	c #373737",
"@ 	c #4A4A4A",
"# 	c #646464",
"$ 	c #767676",
"% 	c #828282",
"& 	c #868686",
"* 	c #797979",
"= 	c #6B6B6B",
"- 	c #515151",
"; 	c #3C3C3C",
"> 	c #3A3A3A",
", 	c #5D5D5D",
"' 	c #8F8F8F",
") 	c #A7A7A7",
"! 	c #B3B3B3",
"~ 	c #ACACAC",
"{ 	c #989898",
"] 	c #6E6E6E",
"^ 	c #404040",
"/ 	c #494949",
"( 	c #8E8E8E",
"_ 	c #B0B0B0",
": 	c #B1B1B1",
"< 	c #9C9C9C",
"[ 	c #353535",
"} 	c #343434",
"| 	c #555555",
"1 	c #A5A5A5",
"2 	c #B2B2B2",
"3 	c #969696",
"4 	c #636363",
"5 	c #A2A2A2",
"6 	c #A8A8A8",
"7 	c #6C6C6C",
"8 	c #878787",
"9 	c #535353",
"0 	c #ADADAD",
"a 	c #959595",
"b 	c #414141",
"c 	c #AAAAAA",
"d 	c #5B5B5B",
"e 	c #5A5A5A",
"f 	c #717171",
"g 	c #484848",
"h 	c #A4A4A4",
"i 	c #919191",
"j 	c #3F3F3F",
"k 	c #575757",
"l 	c #595959",
"m 	c #626262",
"n 	c #383838",
"o 	c #8A8A8A",
"p 	c #A3A3A3",
"q 	c #464646",
"r 	c #585858",
"s 	c #AEAEAE",
"t 	c #565656",
"u 	c #7B7B7B",
"v 	c #A1A1A1",
"w 	c #444444",
"x 	c #454545",
"y 	c #3E3E3E",
"z 	c #5E5E5E",
"A 	c #909090",
"B 	c #808080",
"C 	c #777777",
"D 	c #9B9B9B",
"E 	c #787878",
"F 	c #8B8B8B",
"G 	c #363636",
"H 	c #7C7C7C",
"I 	c #929292",
"J 	c #838383",
"K 	c #474747",
"L 	c #616161",
"M 	c #8D8D8D",
"N 	c #434343",
"O 	c #393939",
"P 	c #999999",
"Q 	c #7F7F7F",
"R 	c #A6A6A6",
"S 	c #4E4E4E",
"T 	c #A9A9A9",
"U 	c #696969",
"V 	c #7E7E7E",
"W 	c #9A9A9A",
"X 	c #4F4F4F",
"Y 	c #6F6F6F",
"Z 	c #979797",
"` 	c #9E9E9E",
" .	c #676767",
"..	c #3D3D3D",
"+.	c #686868",
"@.	c #9F9F9F",
"#.	c #7A7A7A",
"$.	c #707070",
"%.	c #424242",
"                                                                ",
"                                                                ",
"                      . . . . . . . . . .                       ",
"                  . . + @ # $ % & * = - ; . .                   ",
"                . > , ' ) ! ! ! ! ! ! ~ { ] ^ . .               ",
"            . . / ( _ ! ! ! : ! ! ! ! ! ! _ < , [ .             ",
"          . } | 1 ! ! ! 2 3 4 5 ! ! ! ! 6 7 8 _ ] + .           ",
"          . 9 0 ! ! ! ! a b [ & ! ! ! c d . e ! ! f [ .         ",
"        . g h ! ! ! ! i j . [ & ! ! 6 k . . l ! ! : m .         ",
"      . n o ! ! ! ! ' b . . [ & ! 6 k } . . l ! ! ! p q .       ",
"      . r s ! ! ! ' b .     [ & 6 t } .   . l ! ! ! ! * }       ",
"      [ o ! ! ! ' ^ .       [ u | } .     . l ! ! ! ! v w .     ",
"    . x p ! 2 i y .         } j . .       . l ! ! ! ! : z .     ",
"    . d 2 2 A y .           . . }         . l ! ! ! ! ! B .     ",
"    . = 2 ' y .             . .           . l ! ! ! ! ! i .     ",
"    . C { y .                             . l ! ! ! ! ! D [ .   ",
"    . E F + .                             . l ! ! ! ! ! D G .   ",
"    . 7 _ H + .             .             . l ! ! ! ! ! I .     ",
"    . , 2 _ H + .           . .           . l ! ! ! ! ! J .     ",
"    . K 1 ! _ u + .         . + .         . l ! ! ! ! 2 L .     ",
"      G M ! ! 2 E n .       [ ] N .       . l ! ! ! ! h q .     ",
"      . , _ ! ! 2 E O .     [ & P w .     . l ! ! ! ! Q [       ",
"      . > A ! ! ! 2 C n .   [ & ! { w .   . l ! ! ! R / .       ",
"        . S T ! ! ! 2 E + . [ & ! ! P w . . l ! ! 2 U }         ",
"          . d _ ! ! ! 2 H + [ & ! ! ! D q . l ! ! u G .         ",
"          . } z c ! ! ! : V K a ! ! ! ! W X Y 2 * O .           ",
"            . . - Z 2 ! ! : 6 2 ! ! ! ! ! c `  .G .             ",
"                . ..+.{ 0 ! ! ! ! ! ! _ @.#.q } .               ",
"                  . . ; - $.% ' I 8 E e %.} .                   ",
"                      . . . . . . . . . .                       ",
"                                                                ",
"                                                                "};
