/* XPM */
static char * skip_forward_32x32_xpm[] = {
"32 32 100 2",
"  	c None",
". 	c #333333",
"+ 	c #373737",
"@ 	c #4A4A4A",
"# 	c #646464",
"$ 	c #767676",
"% 	c #828282",
"& 	c #868686",
"* 	c #797979",
"= 	c #6B6B6B",
"- 	c #515151",
"; 	c #3C3C3C",
"> 	c #3A3A3A",
", 	c #5D5D5D",
"' 	c #8F8F8F",
") 	c #A7A7A7",
"! 	c #B3B3B3",
"~ 	c #ACACAC",
"{ 	c #989898",
"] 	c #6E6E6E",
"^ 	c #404040",
"/ 	c #494949",
"( 	c #8E8E8E",
"_ 	c #AEAEAE",
": 	c #B1B1B1",
"< 	c #B2B2B2",
"[ 	c #9D9D9D",
"} 	c #353535",
"| 	c #343434",
"1 	c #555555",
"2 	c #A5A5A5",
"3 	c #9C9C9C",
"4 	c #656565",
"5 	c #9A9A9A",
"6 	c #B0B0B0",
"7 	c #535353",
"8 	c #ADADAD",
"9 	c #808080",
"0 	c #454545",
"a 	c #A8A8A8",
"b 	c #7A7A7A",
"c 	c #717171",
"d 	c #484848",
"e 	c #A4A4A4",
"f 	c #424242",
"g 	c #979797",
"h 	c #363636",
"i 	c #626262",
"j 	c #383838",
"k 	c #8A8A8A",
"l 	c #434343",
"m 	c #969696",
"n 	c #747474",
"o 	c #A3A3A3",
"p 	c #464646",
"q 	c #585858",
"r 	c #737373",
"s 	c #414141",
"t 	c #8C8C8C",
"u 	c #393939",
"v 	c #A1A1A1",
"w 	c #444444",
"x 	c #3E3E3E",
"y 	c #AFAFAF",
"z 	c #5E5E5E",
"A 	c #5B5B5B",
"B 	c #757575",
"C 	c #919191",
"D 	c #777777",
"E 	c #787878",
"F 	c #9B9B9B",
"G 	c #6C6C6C",
"H 	c #606060",
"I 	c #A9A9A9",
"J 	c #929292",
"K 	c #838383",
"L 	c #474747",
"M 	c #5F5F5F",
"N 	c #616161",
"O 	c #8D8D8D",
"P 	c #5C5C5C",
"Q 	c #ABABAB",
"R 	c #7D7D7D",
"S 	c #7F7F7F",
"T 	c #909090",
"U 	c #AAAAAA",
"V 	c #A6A6A6",
"W 	c #4E4E4E",
"X 	c #7E7E7E",
"Y 	c #696969",
"Z 	c #818181",
"` 	c #7B7B7B",
" .	c #959595",
"..	c #676767",
"+.	c #3D3D3D",
"@.	c #686868",
"#.	c #9F9F9F",
"$.	c #707070",
"%.	c #878787",
"&.	c #5A5A5A",
"                                                                ",
"                                                                ",
"                      . . . . . . . . . .                       ",
"                  . . + @ # $ % & * = - ; . .                   ",
"                . > , ' ) ! ! ! ! ! ! ~ { ] ^ . .               ",
"            . . / ( _ ! ! ! ! ! ! : < ! ! < [ , } .             ",
"          . | 1 2 3 4 5 ! ! ! ! < = % 6 ! ! ! 6 ] + .           ",
"          . 7 8 ! 9 . 0 5 ! ! ! a > + b < ! ! ! ! c } .         ",
"        . d e ! ! 9 . . f g ! ! a > . h $ : ! ! ! : i .         ",
"      . j k ! ! ! 9 . . . l m ! a > . . j n : ! ! ! o p .       ",
"      . q _ ! ! ! 9 .     . f m a > .   . j r : ! ! ! * |       ",
"      } k ! ! ! ! 9 .       . s t u .     . + r : ! ! v w .     ",
"    . 0 o ! ! ! ! 9 .         . x | .       . h $ y ! : z .     ",
"    . A < ! ! ! ! 9 .           . . .         . } $ y ! 9 .     ",
"    . = ! ! ! ! ! 9 .             . .           . h B y C .     ",
"    . D ! ! ! ! ! 9 .                             . } * 5 } .   ",
"    . E ! ! ! ! ! 9 .                             . . = F h .   ",
"    . G ! ! ! ! ! 9 .             .             . . H I J .     ",
"    . , < ! ! ! ! 9 .           . . .         . . H I ! K .     ",
"    . L 2 ! ! ! ! 9 .         . + | .       . . M I ! < N .     ",
"      h O ! ! ! ! 9 .       . j $ u .     . | P Q ! ! e p .     ",
"      . , 6 ! ! ! 9 .     . u R a > .   . | P Q ! ! ! S }       ",
"      . > T ! ! ! 9 .   . > R ! a > . . | P U ! ! ! V / .       ",
"        . W I ! ! 9 . . u X ! ! a > . . , Q ! ! ! < Y |         ",
"          . A 6 ! 9 . u Z ! ! ! a > . N Q ! ! ! ! ` h .         ",
"          . | z U T L K : ! ! ! y W # U ! ! ! < * u .           ",
"            . . -  .) : ! ! ! ! ! I _ ! ! ! e ..h .             ",
"                . +.@.{ 8 ! ! ! ! ! ! 6 #.b p | .               ",
"                  . . ; - $.% ' J %.E &.f | .                   ",
"                      . . . . . . . . . .                       ",
"                                                                ",
"                                                                "};
