/* XPM */
static char * stop_32x32_xpm[] = {
"32 32 85 1",
" 	c None",
".	c #333333",
"+	c #373737",
"@	c #4A4A4A",
"#	c #646464",
"$	c #767676",
"%	c #828282",
"&	c #868686",
"*	c #797979",
"=	c #6B6B6B",
"-	c #515151",
";	c #3C3C3C",
">	c #3A3A3A",
",	c #5D5D5D",
"'	c #8F8F8F",
")	c #A7A7A7",
"!	c #B3B3B3",
"~	c #ACACAC",
"{	c #989898",
"]	c #6E6E6E",
"^	c #404040",
"/	c #494949",
"(	c #8E8E8E",
"_	c #B0B0B0",
":	c #B2B2B2",
"<	c #9D9D9D",
"[	c #353535",
"}	c #343434",
"|	c #555555",
"1	c #A5A5A5",
"2	c #B1B1B1",
"3	c #AFAFAF",
"4	c #535353",
"5	c #AAAAAA",
"6	c #808080",
"7	c #636363",
"8	c #626262",
"9	c #727272",
"0	c #A6A6A6",
"a	c #717171",
"b	c #484848",
"c	c #A4A4A4",
"d	c #5E5E5E",
"e	c #AEAEAE",
"f	c #383838",
"g	c #8A8A8A",
"h	c #676767",
"i	c #454545",
"j	c #ADADAD",
"k	c #A3A3A3",
"l	c #464646",
"m	c #585858",
"n	c #656565",
"o	c #444444",
"p	c #A1A1A1",
"q	c #5B5B5B",
"r	c #919191",
"s	c #777777",
"t	c #9B9B9B",
"u	c #787878",
"v	c #363636",
"w	c #6C6C6C",
"x	c #929292",
"y	c #838383",
"z	c #474747",
"A	c #616161",
"B	c #8D8D8D",
"C	c #7F7F7F",
"D	c #909090",
"E	c #666666",
"F	c #4E4E4E",
"G	c #A8A8A8",
"H	c #696969",
"I	c #959595",
"J	c #7B7B7B",
"K	c #393939",
"L	c #979797",
"M	c #3D3D3D",
"N	c #686868",
"O	c #9F9F9F",
"P	c #7A7A7A",
"Q	c #707070",
"R	c #878787",
"S	c #5A5A5A",
"T	c #424242",
"                                ",
"                                ",
"           ..........           ",
"         ..+@#$%&*=-;..         ",
"        .>,')!!!!!!~{]^..       ",
"      ../(_!!!!!!!!!!:<,[.      ",
"     .}|1222222222222223]+.     ",
"     .4567888888888888890a[.    ",
"    .bc%................de8.    ",
"   .fg:h.              .ijkl.   ",
"   .me:n.              .oj!*}   ",
"   [g!:n.              .oj!po.  ",
"  .ik!:n.              .oj!2d.  ",
"  .q:!:n.              .oj!!6.  ",
"  .=!!:n.              .oj!!r.  ",
"  .s!!:n.              .oj!!t[. ",
"  .u!!:n.              .oj!!tv. ",
"  .w!!:n.              .oj!!x.  ",
"  .,:!:n.              .oj!!y.  ",
"  .z1!:n.              .oj!:A.  ",
"   vB!:n.              .oj!cl.  ",
"   .,_:n.              .oj!C[   ",
"   .>D:E.              .oj0/.   ",
"    .FGs................4eH}    ",
"     .q0Aliiiiiiiiiiiii|IJv.    ",
"     .}dGjjjjjjjjjjjjjje*K.     ",
"      ..-L:!!!!!!!!!!!chv.      ",
"        .MN{j!!!!!!_OPl}.       ",
"         ..;-Q%'xRuST}.         ",
"           ..........           ",
"                                ",
"                                "};
