/* XPM */
static char * stop_60x60_xpm[] = {
"60 60 102 2",
"  	c None",
". 	c #333333",
"+ 	c #323232",
"@ 	c #343434",
"# 	c #383838",
"$ 	c #585858",
"% 	c #686868",
"& 	c #747474",
"* 	c #818181",
"= 	c #8D8D8D",
"- 	c #949494",
"; 	c #888888",
"> 	c #7B7B7B",
", 	c #6F6F6F",
"' 	c #626262",
") 	c #4A4A4A",
"! 	c #3B3B3B",
"~ 	c #616161",
"{ 	c #8B8B8B",
"] 	c #AFAFAF",
"^ 	c #B3B3B3",
"/ 	c #A1A1A1",
"( 	c #797979",
"_ 	c #505050",
": 	c #424242",
"< 	c #838383",
"[ 	c #B0B0B0",
"} 	c #A4A4A4",
"| 	c #646464",
"1 	c #3C3C3C",
"2 	c #7A7A7A",
"3 	c #9E9E9E",
"4 	c #5C5C5C",
"5 	c #5B5B5B",
"6 	c #ABABAB",
"7 	c #929292",
"8 	c #3D3D3D",
"9 	c #727272",
"0 	c #B2B2B2",
"a 	c #A3A3A3",
"b 	c #393939",
"c 	c #898989",
"d 	c #ADADAD",
"e 	c #5D5D5D",
"f 	c #373737",
"g 	c #979797",
"h 	c #9F9F9F",
"i 	c #848484",
"j 	c #A8A8A8",
"k 	c #6A6A6A",
"l 	c #4E4E4E",
"m 	c #858585",
"n 	c #6E6E6E",
"o 	c #A5A5A5",
"p 	c #414141",
"q 	c #575757",
"r 	c #3E3E3E",
"s 	c #9A9A9A",
"t 	c #A0A0A0",
"u 	c #AAAAAA",
"v 	c #777777",
"w 	c #717171",
"x 	c #515151",
"y 	c #999999",
"z 	c #434343",
"A 	c #6C6C6C",
"B 	c #454545",
"C 	c #535353",
"D 	c #9B9B9B",
"E 	c #5F5F5F",
"F 	c #A7A7A7",
"G 	c #787878",
"H 	c #404040",
"I 	c #6D6D6D",
"J 	c #363636",
"K 	c #A9A9A9",
"L 	c #555555",
"M 	c #9D9D9D",
"N 	c #484848",
"O 	c #909090",
"P 	c #737373",
"Q 	c #828282",
"R 	c #595959",
"S 	c #4B4B4B",
"T 	c #B1B1B1",
"U 	c #464646",
"V 	c #7F7F7F",
"W 	c #696969",
"X 	c #8F8F8F",
"Y 	c #4D4D4D",
"Z 	c #969696",
"` 	c #5A5A5A",
" .	c #636363",
"..	c #919191",
"+.	c #9C9C9C",
"@.	c #8A8A8A",
"#.	c #565656",
"$.	c #7D7D7D",
"%.	c #3F3F3F",
"&.	c #8C8C8C",
"*.	c #989898",
"=.	c #878787",
"                                                                                                                        ",
"                                                                                                                        ",
"                                                                                                                        ",
"                                                    . + @ . . @ + .                                                     ",
"                                            @ . . . . . . . . . . . . . . . .                                           ",
"                                      . . . . . . . . . . . . . . . . . . . . . .                                       ",
"                                  . . . . . . . # $ % & * = - ; > , ' ) . . . . . . .                                   ",
"                                . . . . . ! ~ { ] ^ ^ ^ ^ ^ ^ ^ ^ ^ ^ ^ / ( _ @ . . . . .                               ",
"                            + . . . . : < [ ^ ^ ^ ^ ^ ^ ^ ^ ^ ^ ^ ^ ^ ^ ^ ^ ^ } | @ . . . .                             ",
"                          . . . . 1 2 ] ^ ^ ^ ^ ^ ^ ^ ^ ^ ^ ^ ^ ^ ^ ^ ^ ^ ^ ^ ^ ^ 3 4 . . . . .                         ",
"                        . . . . 5 6 ^ ^ ^ ^ ^ ^ ^ ^ ^ ^ ^ ^ ^ ^ ^ ^ ^ ^ ^ ^ ^ ^ ^ ^ ^ 7 8 . . . .                       ",
"                      . . . @ 9 0 ^ ^ ^ ^ ^ ^ ^ ^ ^ ^ ^ ^ ^ ^ ^ ^ ^ ^ ^ ^ ^ ^ ^ ^ ^ ^ ^ a ) . . . .                     ",
"                    . . . b c ^ ^ ^ ^ ^ ^ ^ ^ ^ ^ ^ ^ ^ ^ ^ ^ ^ ^ ^ ^ ^ ^ ^ ^ ^ ^ ^ ^ ^ ^ d e . . . +                   ",
"                  . . . f g ^ ^ ] g g g g g g g g g g g g g g g g g g g g g g g g g g h ^ ^ 0 | . . .                   ",
"                . . . . i ^ j k 1 . . . . . . . . . . . . . . . . . . . . . . . . . . . l m ^ [ _ . . .                 ",
"                . . . n ^ ^ , . . . . . . . . . . . . . . . . . . . . . . . . . . . . . . @ o ^ j p . . .               ",
"              . . . q 0 ^ [ r . . . . . . . . . . . . . . . . . . . . . . . . . . . . . . . & ^ ^ s f . . +             ",
"              . . f o ^ ^ t . . .                                                     . . . $ ^ ^ ^ 9 . . .             ",
"            . . . n ^ ^ ^ h . . .                                                       . . q ^ ^ ^ d 8 . . .           ",
"          . . . 1 u ^ ^ ^ h . . .                                                       . . q ^ ^ ^ ^ > . . .           ",
"          . . . v ^ ^ ^ ^ h . . .                                                       . . q ^ ^ ^ ^ [ : . .           ",
"          . . @ j ^ ^ ^ ^ h . . .                                                       . . q ^ ^ ^ ^ ^ w . . .         ",
"        . . . x ^ ^ ^ ^ ^ h . . .                                                       . . q ^ ^ ^ ^ ^ y . . .         ",
"        . . . > ^ ^ ^ ^ ^ h . . .                                                       . . q ^ ^ ^ ^ ^ ^ z . .         ",
"        . . . a ^ ^ ^ ^ ^ h . . .                                                       . . q ^ ^ ^ ^ ^ ^ A . . @       ",
"        . . B ^ ^ ^ ^ ^ ^ h . . .                                                       . . q ^ ^ ^ ^ ^ ^ = . . .       ",
"        . . C ^ ^ ^ ^ ^ ^ h . . .                                                       . . q ^ ^ ^ ^ ^ ^ D . . .       ",
"        . . E ^ ^ ^ ^ ^ ^ h . . .                                                       . . q ^ ^ ^ ^ ^ ^ F . . .       ",
"      . . . A ^ ^ ^ ^ ^ ^ h . . .                                                       . . q ^ ^ ^ ^ ^ ^ 0 @ . .       ",
"      + . . G ^ ^ ^ ^ ^ ^ h . . .                                                       . . q ^ ^ ^ ^ ^ ^ ^ H . .       ",
"      . . . 2 ^ ^ ^ ^ ^ ^ h . . .                                                       . . q ^ ^ ^ ^ ^ ^ ^ p . .       ",
"      . . . I ^ ^ ^ ^ ^ ^ h . . .                                                       . . q ^ ^ ^ ^ ^ ^ 0 J . .       ",
"        . . ~ ^ ^ ^ ^ ^ ^ h . . .                                                       . . q ^ ^ ^ ^ ^ ^ K . . .       ",
"        . . L ^ ^ ^ ^ ^ ^ h . . .                                                       . . q ^ ^ ^ ^ ^ ^ M . . .       ",
"        . . N ^ ^ ^ ^ ^ ^ h . . .                                                       . . q ^ ^ ^ ^ ^ ^ O . . .       ",
"        . . @ K ^ ^ ^ ^ ^ h . . .                                                       . . q ^ ^ ^ ^ ^ ^ P . . @       ",
"        . . . Q ^ ^ ^ ^ ^ h . . .                                                       . . q ^ ^ ^ ^ ^ ^ ) . .         ",
"        . . . R ^ ^ ^ ^ ^ h . . .                                                       . . q ^ ^ ^ ^ ^ / . . .         ",
"          . . f d ^ ^ ^ ^ h . . .                                                       . . q ^ ^ ^ ^ ^ G . . .         ",
"          . . . Q ^ ^ ^ ^ h . . .                                                       . . q ^ ^ ^ ^ 0 S . . +         ",
"          . . . z [ ^ ^ ^ h . . .                                                       . . q ^ ^ ^ ^ ; . . .           ",
"            . . . > ^ ^ ^ h . . .                                                       . . q ^ ^ ^ T U . . .           ",
"            @ . . r d ^ ^ h . . .                                                       . . q ^ ^ ^ V . . .             ",
"              . . . W ^ ^ F @ . . +                                                   . . . E ^ ^ o r . . @             ",
"                . . . Q ^ ^ $ . . . . . . . . . . . . . . . . . . . . . . . . . . . . . . . X ^ ] Y . . .               ",
"                . . . J Z ^ X f . . . . . . . . . . . . . . . . . . . . . . . . . . . . . S 0 ^ ~ . . .                 ",
"                  . . . r o ^ u 2 5 ` ` ` ` ` ` ` ` ` ` ` ` ` ` ` ` ` ` ` ` ` ` ` ` `  ...0 ^ G . . . .                 ",
"                    . . . z +.^ ^ ^ ^ ^ ^ ^ ^ ^ ^ ^ ^ ^ ^ ^ ^ ^ ^ ^ ^ ^ ^ ^ ^ ^ ^ ^ ^ ^ ^ 0 & @ . . .                   ",
"                      . . . b @.^ ^ ^ ^ ^ ^ ^ ^ ^ ^ ^ ^ ^ ^ ^ ^ ^ ^ ^ ^ ^ ^ ^ ^ ^ ^ ^ ^ d 4 . . . .                     ",
"                        . . . @ P 0 ^ ^ ^ ^ ^ ^ ^ ^ ^ ^ ^ ^ ^ ^ ^ ^ ^ ^ ^ ^ ^ ^ ^ ^ ^ a S . . . .                       ",
"                          . . . . Y 7 ^ ^ ^ ^ ^ ^ ^ ^ ^ ^ ^ ^ ^ ^ ^ ^ ^ ^ ^ ^ ^ ^ d & b . . . .                         ",
"                            . . . . . #.D ^ ^ ^ ^ ^ ^ ^ ^ ^ ^ ^ ^ ^ ^ ^ ^ ^ ^ [ $.r . . . . .                           ",
"                              . . . . . @ _ 2 a ^ ^ ^ ^ ^ ^ ^ ^ ^ ^ ^ ^ T ..% %.. . . . .                               ",
"                                  + . . . . . . S w V &.*.o 6 t - =.> ' 1 . . . . . . .                                 ",
"                                      . . . . . . . . . . . . . . . . . . . . . . @                                     ",
"                                          @ . . . . . . . . . . . . . . . . +                                           ",
"                                                  + @ . . . . . . @ + .                                                 ",
"                                                                                                                        ",
"                                                                                                                        ",
"                                                                                                                        "};
