/* XPM */
static const char * camera_64x64_xpm[] = {
"64 64 249 2",
"  	c None",
". 	c #9D9D9D",
"+ 	c #9E9E9E",
"@ 	c #A2A2A2",
"# 	c #B8B8B8",
"$ 	c #C0C0C0",
"% 	c #B6B6B6",
"& 	c #BFBFBF",
"* 	c #C1C1C1",
"= 	c #B2B2B2",
"- 	c #B1B1B1",
"; 	c #BEBEBE",
"> 	c #ADADAD",
", 	c #9A9A9A",
"' 	c #DBDBDB",
") 	c #B7B7B7",
"! 	c #E5E5E5",
"~ 	c #EDEDED",
"{ 	c #CBCBCB",
"] 	c #9B9B9B",
"^ 	c #A6A6A6",
"/ 	c #A8A8A8",
"( 	c #878787",
"_ 	c #515151",
": 	c #525252",
"< 	c #5C5C5C",
"[ 	c #808080",
"} 	c #4A4A4A",
"| 	c #424242",
"1 	c #5A5A5A",
"2 	c #A7A7A7",
"3 	c #848484",
"4 	c #979797",
"5 	c #929292",
"6 	c #959595",
"7 	c #A4A4A4",
"8 	c #AFAFAF",
"9 	c #B9B9B9",
"0 	c #C3C3C3",
"a 	c #C7C7C7",
"b 	c #D3D3D3",
"c 	c #D0D0D0",
"d 	c #CDCDCD",
"e 	c #D7D7D7",
"f 	c #FAFAFA",
"g 	c #9F9F9F",
"h 	c #6A6A6A",
"i 	c #2D2D2D",
"j 	c #707070",
"k 	c #606060",
"l 	c #3F3F3F",
"m 	c #292929",
"n 	c #595959",
"o 	c #6B6B6B",
"p 	c #7B7B7B",
"q 	c #3E3E3E",
"r 	c #818181",
"s 	c #C4C4C4",
"t 	c #C9C9C9",
"u 	c #D5D5D5",
"v 	c #E2E2E2",
"w 	c #EEEEEE",
"x 	c #F5F5F5",
"y 	c #E7E7E7",
"z 	c #E3E3E3",
"A 	c #D6D6D6",
"B 	c #F6F6F6",
"C 	c #C2C2C2",
"D 	c #494949",
"E 	c #A1A1A1",
"F 	c #8A8A8A",
"G 	c #313131",
"H 	c #545454",
"I 	c #5F5F5F",
"J 	c #5D5D5D",
"K 	c #A9A9A9",
"L 	c #969696",
"M 	c #F8F8F8",
"N 	c #F1F1F1",
"O 	c #E6E6E6",
"P 	c #939393",
"Q 	c #C5C5C5",
"R 	c #E1E1E1",
"S 	c #E0E0E0",
"T 	c #DFDFDF",
"U 	c #DEDEDE",
"V 	c #DDDDDD",
"W 	c #D8D8D8",
"X 	c #BDBDBD",
"Y 	c #AEAEAE",
"Z 	c #7C7C7C",
"` 	c #2E2E2E",
" .	c #636363",
"..	c #ABABAB",
"+.	c #838383",
"@.	c #757575",
"#.	c #656565",
"$.	c #A5A5A5",
"%.	c #A3A3A3",
"&.	c #A0A0A0",
"*.	c #C8C8C8",
"=.	c #CCCCCC",
"-.	c #D1D1D1",
";.	c #D2D2D2",
">.	c #D4D4D4",
",.	c #414141",
"'.	c #646464",
").	c #DCDCDC",
"!.	c #DADADA",
"~.	c #D9D9D9",
"{.	c #FDFDFD",
"].	c #F7F7F7",
"^.	c #EAEAEA",
"/.	c #E8E8E8",
"(.	c #FCFCFC",
"_.	c #FBFBFB",
":.	c #F9F9F9",
"<.	c #ACACAC",
"[.	c #8F8F8F",
"}.	c #6E6E6E",
"|.	c #CECECE",
"1.	c #C6C6C6",
"2.	c #F3F3F3",
"3.	c #F2F2F2",
"4.	c #E4E4E4",
"5.	c #AAAAAA",
"6.	c #434343",
"7.	c #797979",
"8.	c #B5B5B5",
"9.	c #BABABA",
"0.	c #484848",
"a.	c #767676",
"b.	c #919191",
"c.	c #CFCFCF",
"d.	c #B3B3B3",
"e.	c #BCBCBC",
"f.	c #B0B0B0",
"g.	c #989898",
"h.	c #CACACA",
"i.	c #828282",
"j.	c #8D8D8D",
"k.	c #585858",
"l.	c #BBBBBB",
"m.	c #8C8C8C",
"n.	c #626262",
"o.	c #9C9C9C",
"p.	c #888888",
"q.	c #8E8E8E",
"r.	c #909090",
"s.	c #4F4F4F",
"t.	c #4B4B4B",
"u.	c #4D4D4D",
"v.	c #E9E9E9",
"w.	c #949494",
"x.	c #868686",
"y.	c #858585",
"z.	c #8B8B8B",
"A.	c #5E5E5E",
"B.	c #383838",
"C.	c #393939",
"D.	c #717171",
"E.	c #7F7F7F",
"F.	c #B4B4B4",
"G.	c #7E7E7E",
"H.	c #7A7A7A",
"I.	c #1E1E1E",
"J.	c #171717",
"K.	c #1B1B1B",
"L.	c #272727",
"M.	c #232323",
"N.	c #191919",
"O.	c #131313",
"P.	c #565656",
"Q.	c #616161",
"R.	c #999999",
"S.	c #3A3A3A",
"T.	c #151515",
"U.	c #1C1C1C",
"V.	c #373737",
"W.	c #38333E",
"X.	c #302641",
"Y.	c #1E152D",
"Z.	c #0C0A0F",
"`.	c #161616",
" +	c #787878",
".+	c #747474",
"++	c #2F2F2F",
"@+	c #3C3645",
"#+	c #543E71",
"$+	c #4C2D6D",
"%+	c #3D1D61",
"&+	c #210D3F",
"*+	c #0B0A0E",
"=+	c #111111",
"-+	c #6D6D6D",
";+	c #555555",
">+	c #EBEBEB",
",+	c #2B2B2B",
"'+	c #3E2E55",
")+	c #6B4F86",
"!+	c #562A74",
"~+	c #451A67",
"{+	c #321358",
"]+	c #0E071A",
"^+	c #454545",
"/+	c #777777",
"(+	c #737373",
"_+	c #121212",
":+	c #301E49",
"<+	c #452167",
"[+	c #4B1C6B",
"}+	c #421665",
"|+	c #4C4C4C",
"1+	c #696969",
"2+	c #898989",
"3+	c #120A1D",
"4+	c #2E1352",
"5+	c #37145C",
"6+	c #34135A",
"7+	c #220D3F",
"8+	c #676767",
"9+	c #666666",
"0+	c #141414",
"a+	c #101011",
"b+	c #0C0715",
"c+	c #160929",
"d+	c #130823",
"e+	c #0B090E",
"f+	c #505050",
"g+	c #282828",
"h+	c #181818",
"i+	c #535353",
"j+	c #363636",
"k+	c #464646",
"l+	c #404040",
"m+	c #444444",
"n+	c #222222",
"o+	c #474747",
"p+	c #3B3B3B",
"q+	c #686868",
"r+	c #6C6C6C",
"s+	c #3D3D3D",
"t+	c #3C3C3C",
"u+	c #6F6F6F",
"v+	c #303030",
"w+	c #353535",
"x+	c #323232",
"y+	c #575757",
"z+	c #7D7D7D",
"                                                                                                                                ",
"                                                                                                                                ",
"                                                                                                                                ",
"                                                                                                                                ",
"                                                                                                                                ",
"                                                                                                                                ",
"                                                                                                                                ",
"                                                                                                                                ",
"                                                                                                                                ",
"                                                                                                                                ",
"                                                                                                                                ",
"                                                                                                                                ",
"                                                                                                                                ",
"                                                                                                                                ",
"                                                                                                                                ",
"                                                                                                                                ",
"              . + + + + + + + + + + + + + + + + + + + + + + + + + + + + + + + + + + + + + + + + + + + + + + + + + + + +         ",
"          @ # $ # % % % % % % % % % % % % % % % % % % & * = - - - - - - - - - - - - - - - - - - - & * * * * * * * * * * ; >     ",
"        , & ' ) ! ~ ~ ~ ~ ~ ~ ~ ~ ~ ~ ~ ~ ~ ~ ~ ~ ~ ~ { ] ^ / ( _ _ : : < / / [ } | 1 ^ / / / / 2 3 . 4 5 6 ] 7 8 9 0 a b c /   ",
"        . d e 9 f f f f f f f f f f f f f f f f f f f f 2 g g h i j k l m g + n o p q r g g g g g 7 c s # ; t u v w f x y z -   ",
"        ] d A * B B B B B B B B B B B B B B B B B B B B C g g h D r E F G g . H I 2 J [ g g g g g K ) ^ L g - 0 u y M N ! O -   ",
"        P Q { * R v v v v R S T U V V V V U T S S R U W X ^ Y Z ` _ j  .m ....+.n @.#.$.%.@ E &.+ . &.*.=.c -.;.;.b >.b >.O 8   ",
"      ,.'.3  .- V S ).).).).).).' !.W W e W ~.!.).U T R ;.S {.].y y ^.y /.(.(.(._._._.f f f :.:.:.M 0 ).z ! O /././.y O ! ! <.  ",
"      q h [.}.C ).~.|.e u >.>.>.u e ~.!.!.!.!.!.!.!.!.).A 1.2.2.2.2.2.2.2.2.2.2.2.2.2.2.2.2.2.2.2.3.c =.S T T T S R v v !.4.5.  ",
"      6.j P 7.t >.7 &.b b ;.;.-.-.-.d 1.u e ~.!.' ' ' ' !...! ! ! ! ! ! R 8...5.^ / ....;.! ! ! ! ! b 9.V ).!.W e e e W 9.z /   ",
"      0.a.b.3 c.d d.> *.c.-.;.>.>.Q ; e.b >.>.u e ~.' ' ' + e e e e A K @ { -.t s a |.>.f.+ t e e A |.7 >.u u >.;.-.c.c.E v ^   ",
"      _ Z F 5 ;.=.t C C d d |.c.-.& - a e e e e A u >.b >.g.t t t s P s h.8 i.Z j.@ 8.$ Q -.@ <.t *.s 4 *.t h.=.d |.|.d b.v 7   ",
"    @.k.+.i.@ c.0 a & l.c.c.c.|.|.X e.X ;.b >.>.>.b -.c.d b.l.l.# m.=.X m.n.}.7.r o.h.z R Q |./ %.9.) b.Q s s Q 1.a t h.p.R @   ",
"    i.I @.q.# c.9.9.8.f.t { d |.c.0 ; l.d { h.h.h.h.{ { { r...> ( Q 9.j.@.'.s.t.s.u.: p.!.v.a |.w.^ ..r.Q x.j.s s 0 s * r S g   ",
"  y.y.: #.4 C b 9...5.Y *.*.t h.{ X = K =.{ h.*.1.Q s 0 0 q.g.j.&.C . z.A.B.C.C.C.C.C.C.: ;.O ; =.D.F m.0 L 7.Q Q s C 9.p S .   ",
"  b.E.: I + =.-.F.o.@ > { { h.t a & $ F.Q Q 1.1.1.Q 0 * & j., G.h.<.@ H.I.J.K.L.M.K.N.N.O.P.~.a Q 4 . &.9.6 7.4 > X X F.a.T ]   ",
"  P   Q.n.K ;.c 8 w.&.$.Q 1.1.1.Q 9.= @ & ; e.e.e.e.X X ; q.R.m.C - ) S.T.U.V.W.X.Y.Z.`.N.N.o.c.# X y.] d. +@.j .+f.f./ j U g.  ",
"  m.  ( 3 % c b - 4 %.E * & ; ; ; f.... & ; e.9.9 ) ) # 9.z.z.o.% ;.<.K.N.++@+#+$+%+&+*+N.=+'.A # { H.L Y -+-+P.h K / g o U L   ",
"  G.;+b. +X = c.Y ] ^ @ * $ & X l.2 @ w.# # 9 9.l.e.e.l.l.+.J E # >+$.=+N.,+'+)+!+~+{+]+J.`.^+z $ =.k 3 $./+'.E.( K / g h V w.  ",
"  (+^+o.G.e.X { K . / ] # # # 9 # > w.F d.= = d.8.% # 9.l.r k.. ) _.= _+N.I.:+<+[+}+{+]+J.`.|+B { { < 3 &.E.|+.+r 7 $.g 1+).5   ",
"    0.5 (+9.> *.2 + K g.- f.8 Y Y o.2+( d.F.F.d.d.d.d.F.8./+n p.d.3.;.U.N.J.3+4+5+6+7+*+N.=+H.2.C Q _ x.E 8+9+g g &.&.o.8+).r.  ",
"    _ F 1+8.8 C ^ g / ] - f.8 Y > R.q.b.8 - d.8.% ) ) ) ) }.P.8+* ;.x ;+0+N.a+b+c+d+e+`.N.U.l.! d.2 f+2++ n.k.+ o., R.L  .' q.  ",
"      i.f+^ 2 e.2 + $.R.K 5.<.Y > z...y.8 8 8 8 - = F.% ) 8+f+^+# 8.x =.g+`.h+`._+O.J.h+0+ +e ; s }.i+p.w.6 w.L 4 L 6 w.Q.!.z.  ",
"      h j+5 %.- ^ o.. + ^ ^ ^ 2 2 G.+.G.8 f.f.f.8 8 Y Y > k.D k+j X 1.3.& D q q q q q q  +1.h.8 f.l+t.F j.m.z.z.m.j.j.q.#.~.2+  ",
"      m+n+E.g E @ 5 z.$./ K K K / g r.$.5.<.Y 8 f.8 Y > 5.o+| | p+, F.t /.c.r.-+I '. +g l.& 2 0 f+,.6.m.( x.y.+.+.i.+.y.q+~.(   ",
"      M.K.r+. g.@ [.3 %.7 ^ / 5...<.<.<...5.K / / / / K %.s+t+t+t+C.g 8.$.F.5.R.m.F g.5.g / C 1 C.p+k+3 [ r i.i.i.r [ [ u+W y.  ",
"      h+I.J o.[.%.6 x.%.%.@ @ %.7 ^ 2 / / / 2 $.%.@ &.g q.v+w+w+w+w+G Z X @ 2+u+Q..+F ] & / k+x+w+w+y+G.z+z+E.[ i.+.+.+.z+e i.  ",
"        P.^ A E.x.+.z+p.p.p.p.p.p.( ( ( p.p.2+2+2+2+2+p.(+.+z+z+z+z+z+ +a.q.<.& 0 0 9.g i.(+Z z+z+z+.+@.@..+(+.+@.@.a./+7.e [   ",
"        n > V 2+y.3 3 +.+.3 y.x.( 2+z.m.q.r.5 w.L g., o.p + g g g g g g g 4 y.H.Z p G.r.+ g g g g 4 X d d d d d d d d d ;.A G.  ",
"        k.<.U L x.3 i.r i.+.y.( 2+z.j.r.5 w.4 R.] + &.E @.g g g g g g g g g g g g g g g g g g g g 6 ;.c c c c c c c c c A -.7.  ",
"        s.6 b 8 [ +.i.i.i.+.+.3 y.x.p.2+z.m.q.r.b.P 6 ( ; K / / / / / / / / / / / / / / / / / / K 0 -.-.-.-.-.-.-.-.-.c e = 8+  ",
"          < 2+P G.p p p p p p p p p p p p p p p p p p F w.w.w.w.w.w.w.w.w.w.w.w.w.w.w.w.w.w.w.w.w.w.w.w.w.w.w.w.w.w.w.P 5 u+    ",
"              |+|+|+|+|+|+|+|+|+|+|+|+|+|+|+|+|+|+|+|+|+|+|+|+|+|+|+|+|+|+|+|+|+|+|+|+|+|+|+|+|+|+|+|+|+|+|+|+|+|+|+|+|+        ",
"                                                                                                                                ",
"                                                                                                                                ",
"                                                                                                                                ",
"                                                                                                                                ",
"                                                                                                                                ",
"                                                                                                                                ",
"                                                                                                                                ",
"                                                                                                                                ",
"                                                                                                                                ",
"                                                                                                                                ",
"                                                                                                                                ",
"                                                                                                                                ",
"                                                                                                                                ",
"                                                                                                                                ",
"                                                                                                                                ",
"                                                                                                                                "};
