/* XPM */
static const char * pause_32x32_xpm[] = {
"32 32 92 2",
"  	c None",
". 	c #333333",
"+ 	c #373737",
"@ 	c #4A4A4A",
"# 	c #646464",
"$ 	c #767676",
"% 	c #828282",
"& 	c #868686",
"* 	c #797979",
"= 	c #6B6B6B",
"- 	c #515151",
"; 	c #3C3C3C",
"> 	c #3A3A3A",
", 	c #5D5D5D",
"' 	c #8F8F8F",
") 	c #A7A7A7",
"! 	c #B3B3B3",
"~ 	c #ACACAC",
"{ 	c #989898",
"] 	c #6E6E6E",
"^ 	c #404040",
"/ 	c #494949",
"( 	c #8D8D8D",
"_ 	c #A5A5A5",
": 	c #A6A6A6",
"< 	c #AFAFAF",
"[ 	c #B2B2B2",
"} 	c #A8A8A8",
"| 	c #999999",
"1 	c #353535",
"2 	c #343434",
"3 	c #555555",
"4 	c #919191",
"5 	c #484848",
"6 	c #3F3F3F",
"7 	c #414141",
"8 	c #696969",
"9 	c #464646",
"0 	c #B0B0B0",
"a 	c #535353",
"b 	c #ADADAD",
"c 	c #6D6D6D",
"d 	c #3B3B3B",
"e 	c #676767",
"f 	c #3E3E3E",
"g 	c #717171",
"h 	c #A4A4A4",
"i 	c #6C6C6C",
"j 	c #666666",
"k 	c #B1B1B1",
"l 	c #626262",
"m 	c #383838",
"n 	c #8A8A8A",
"o 	c #A3A3A3",
"p 	c #585858",
"q 	c #AEAEAE",
"r 	c #A1A1A1",
"s 	c #444444",
"t 	c #454545",
"u 	c #5E5E5E",
"v 	c #5B5B5B",
"w 	c #808080",
"x 	c #777777",
"y 	c #9B9B9B",
"z 	c #787878",
"A 	c #363636",
"B 	c #929292",
"C 	c #838383",
"D 	c #474747",
"E 	c #616161",
"F 	c #7F7F7F",
"G 	c #909090",
"H 	c #4E4E4E",
"I 	c #A9A9A9",
"J 	c #7B7B7B",
"K 	c #AAAAAA",
"L 	c #888888",
"M 	c #393939",
"N 	c #595959",
"O 	c #949494",
"P 	c #A0A0A0",
"Q 	c #9E9E9E",
"R 	c #9F9F9F",
"S 	c #ABABAB",
"T 	c #9C9C9C",
"U 	c #3D3D3D",
"V 	c #686868",
"W 	c #7A7A7A",
"X 	c #707070",
"Y 	c #878787",
"Z 	c #5A5A5A",
"` 	c #424242",
"                                                                ",
"                                                                ",
"                      . . . . . . . . . .                       ",
"                  . . + @ # $ % & * = - ; . .                   ",
"                . > , ' ) ! ! ! ! ! ! ~ { ] ^ . .               ",
"            . . / ( _ : : ) < ! ! [ } : : : | , 1 .             ",
"          . 2 3 _ 4 5 6 6 7 8 ! ! ( 9 6 6 7 ] 0 ] + .           ",
"          . a b ! c . . . . d 0 ! e . . . . f ! ! g 1 .         ",
"        . 5 h ! ! i .     . d < ! j .     . f ! ! k l .         ",
"      . m n ! ! ! i .     . d < ! j .     . f ! ! ! o 9 .       ",
"      . p q ! ! ! i .     . d < ! j .     . f ! ! ! ! * 2       ",
"      1 n ! ! ! ! i .     . d < ! j .     . f ! ! ! ! r s .     ",
"    . t o ! ! ! ! i .     . d < ! j .     . f ! ! ! ! k u .     ",
"    . v [ ! ! ! ! i .     . d < ! j .     . f ! ! ! ! ! w .     ",
"    . = ! ! ! ! ! i .     . d < ! j .     . f ! ! ! ! ! 4 .     ",
"    . x ! ! ! ! ! i .     . d < ! j .     . f ! ! ! ! ! y 1 .   ",
"    . z ! ! ! ! ! i .     . d < ! j .     . f ! ! ! ! ! y A .   ",
"    . i ! ! ! ! ! i .     . d < ! j .     . f ! ! ! ! ! B .     ",
"    . , [ ! ! ! ! i .     . d < ! j .     . f ! ! ! ! ! C .     ",
"    . D _ ! ! ! ! i .     . d < ! j .     . f ! ! ! ! [ E .     ",
"      A ( ! ! ! ! i .     . d < ! j .     . f ! ! ! ! h 9 .     ",
"      . , 0 ! ! ! i .     . d < ! j .     . f ! ! ! ! F 1       ",
"      . > G ! ! ! i .     . d < ! j .     . f ! ! ! : / .       ",
"        . H I ! ! i .     . d < ! j .     . f ! ! [ 8 2         ",
"          . v 0 ! i . . . . d < ! j . . . . f ! ! J A .         ",
"          . 2 u K L M . . 2 N ! ! % m . . 2 u [ * M .           ",
"            . . - O P Q Q R S ! ! 0 r Q Q Q T e A .             ",
"                . U V { b ! ! ! ! ! ! 0 R W 9 2 .               ",
"                  . . ; - X % ' B Y z Z ` 2 .                   ",
"                      . . . . . . . . . .                       ",
"                                                                ",
"                                                                "};
