/* XPM */
static const char * play_32x32_xpm[] = {
"32 32 89 1",
" 	c None",
".	c #333333",
"+	c #3A3A3A",
"@	c #4E4E4E",
"#	c #696969",
"$	c #7B7B7B",
"%	c #898989",
"&	c #8B8B8B",
"*	c #7F7F7F",
"=	c #707070",
"-	c #545454",
";	c #3F3F3F",
">	c #343434",
",	c #3C3C3C",
"'	c #656565",
")	c #959595",
"!	c #AAAAAA",
"~	c #B3B3B3",
"{	c #AEAEAE",
"]	c #9C9C9C",
"^	c #737373",
"/	c #434343",
"(	c #505050",
"_	c #949494",
":	c #B1B1B1",
"<	c #B2B2B2",
"[	c #A0A0A0",
"}	c #636363",
"|	c #353535",
"1	c #5B5B5B",
"2	c #A9A9A9",
"3	c #757575",
"4	c #7E7E7E",
"5	c #747474",
"6	c #383838",
"7	c #5C5C5C",
"8	c #B0B0B0",
"9	c #A4A4A4",
"0	c #444444",
"a	c #767676",
"b	c #363636",
"c	c #4F4F4F",
"d	c #666666",
"e	c #3B3B3B",
"f	c #929292",
"g	c #A5A5A5",
"h	c #484848",
"i	c #606060",
"j	c #727272",
"k	c #AFAFAF",
"l	c #7D7D7D",
"m	c #393939",
"n	c #919191",
"o	c #373737",
"p	c #A3A3A3",
"q	c #464646",
"r	c #4B4B4B",
"s	c #A8A8A8",
"t	c #717171",
"u	c #838383",
"v	c #6F6F6F",
"w	c #939393",
"x	c #808080",
"y	c #575757",
"z	c #595959",
"A	c #A7A7A7",
"B	c #868686",
"C	c #5A5A5A",
"D	c #A6A6A6",
"E	c #494949",
"F	c #848484",
"G	c #3E3E3E",
"H	c #999999",
"I	c #4D4D4D",
"J	c #585858",
"K	c #ADADAD",
"L	c #555555",
"M	c #828282",
"N	c #6A6A6A",
"O	c #9E9E9E",
"P	c #424242",
"Q	c #9D9D9D",
"R	c #818181",
"S	c #414141",
"T	c #787878",
"U	c #8A8A8A",
"V	c #969696",
"W	c #9A9A9A",
"X	c #8F8F8F",
"                                ",
"                                ",
"           ..........           ",
"         ..+@#$%&*=-;>.         ",
"        .,')!~~~~~~{]^/..       ",
"      ..(_:~~<<~~~~~~<[}|.      ",
"     .>12~~~{34:~~~~~~~:56.     ",
"     .78~~~~90|a~~~~~~~~~ab.    ",
"    .c2~~~~~90..3:~~~~~~~<d>    ",
"   .ef~~~~~~90..|58~~~~~~~gh.   ",
"   .i:~~~~~~90. .bjk~~~~~~~l|   ",
"  .mn~~~~~~~90.  .oj{~~~~~~pq.  ",
"  .rs~~~~~~~90.   .ot{~~~~~<i.  ",
"  .}~~~~~~~~90.    .o=k~~~~~u.  ",
"  .5~~~~~~~~90.     .bv:~~~~w.  ",
"  .x~~~~~~~~90.      .|5~~~~]6. ",
"  .u~~~~~~~~90.      ..}~~~~]6. ",
"  .a~~~~~~~~90.     .>y!~~~~).  ",
"  .d~~~~~~~~90.    .>zA~~~~~B.  ",
"  .@!~~~~~~~90.   .>CD~~~~~<'.  ",
"  .+)~~~~~~~90.  .>Cg~~~~~~AE.  ",
"   .#<~~~~~~90. .>zD~~~~~~~Fb.  ",
"   .GH~~~~~~90...yA~~~~~~~2I.   ",
"    .JK~~~~~90..L!~~~~~~~~=|    ",
"    .>d<~~~~90.L{~~~~~~~~Mo.    ",
"     .bNk~~~!J1!~~~~~~~~x+.     ",
"      .>CO<~~!K~~~~~~~svo.      ",
"       ..PjQ8~~~~~~<9Rr>.       ",
"         .>SyTUVWXxiq|.         ",
"           .....|....           ",
"                                ",
"                                "};
