/* XPM */
static const char * usb_32x32_xpm[] = {
"32 32 278 2",
"  	c None",
". 	c #BCBCBC",
"+ 	c #BDBDBD",
"@ 	c #BBBBBB",
"# 	c #B7B7B7",
"$ 	c #B8B8B8",
"% 	c #C2C2C2",
"& 	c #C7C7C7",
"* 	c #FBFBFB",
"= 	c #EEEEEE",
"- 	c #E0E0E0",
"; 	c #D1D1D1",
"> 	c #B5B5B5",
", 	c #B4B4B4",
"' 	c #B3B3B3",
") 	c #B2B2B2",
"! 	c #B1B1B1",
"~ 	c #B0B0AF",
"{ 	c #AFAFAE",
"] 	c #AEAEAD",
"^ 	c #ADADAB",
"/ 	c #999895",
"( 	c #959490",
"_ 	c #A09F9C",
": 	c #AAAAA8",
"< 	c #B4B4B3",
"[ 	c #BABABA",
"} 	c #8F8C87",
"| 	c #F7F7F6",
"1 	c #F4F4F4",
"2 	c #E7E7E7",
"3 	c #DADADA",
"4 	c #C7C6C6",
"5 	c #AEAEAC",
"6 	c #ACABA9",
"7 	c #A9A8A6",
"8 	c #A8A7A5",
"9 	c #A7A6A4",
"0 	c #A6A5A2",
"a 	c #A4A3A1",
"b 	c #A3A2A0",
"c 	c #A1A09D",
"d 	c #8D8B87",
"e 	c #7D7B75",
"f 	c #878580",
"g 	c #9E9D99",
"h 	c #CBCAC9",
"i 	c #77746E",
"j 	c #74716B",
"k 	c #74726B",
"l 	c #B1B0AD",
"m 	c #F6F6F6",
"n 	c #F0F0F0",
"o 	c #E2E2E2",
"p 	c #D5D5D5",
"q 	c #C1C1C1",
"r 	c #A5A4A1",
"s 	c #A4A39F",
"t 	c #A3A19E",
"u 	c #A09F9B",
"v 	c #9E9D9A",
"w 	c #9C9B97",
"x 	c #888681",
"y 	c #706D65",
"z 	c #85827D",
"A 	c #7B7872",
"B 	c #82807A",
"C 	c #817F79",
"D 	c #7B7973",
"E 	c #7D7A74",
"F 	c #92918D",
"G 	c #B0AFAD",
"H 	c #F2F2F2",
"I 	c #EBEBEB",
"J 	c #DEDEDE",
"K 	c #BABAB9",
"L 	c #9A9995",
"M 	c #9D9B97",
"N 	c #999793",
"O 	c #918F8B",
"P 	c #8B8984",
"Q 	c #85837E",
"R 	c #807E78",
"S 	c #92908B",
"T 	c #8C8984",
"U 	c #5F5B52",
"V 	c #5A564C",
"W 	c #615E54",
"X 	c #42403B",
"Y 	c #636057",
"Z 	c #66635B",
"` 	c #68655D",
" .	c #6D6A63",
"..	c #737169",
"+.	c #87857F",
"@.	c #83817C",
"#.	c #888682",
"$.	c #8E8C88",
"%.	c #93928E",
"&.	c #AEADAA",
"*.	c #EDEDED",
"=.	c #D9D9D9",
"-.	c #CCCCCC",
";.	c #AFAFAD",
">.	c #76746D",
",.	c #75726C",
"'.	c #737069",
").	c #726F68",
"!.	c #716E67",
"~.	c #706D66",
"{.	c #6F6C65",
"].	c #737068",
"^.	c #83807A",
"/.	c #69655D",
"(.	c #222222",
"_.	c #545453",
":.	c #45423C",
"<.	c #5E5A51",
"[.	c #6E6B64",
"}.	c #7A7770",
"|.	c #85827C",
"1.	c #84817C",
"2.	c #817F7C",
"3.	c #807F7C",
"4.	c #A4A2A0",
"5.	c #E8E7E7",
"6.	c #C8C8C8",
"7.	c #6C6961",
"8.	c #65625A",
"9.	c #646159",
"0.	c #8F8D88",
"a.	c #888580",
"b.	c #84827B",
"c.	c #B0AEAA",
"d.	c #908E88",
"e.	c #615D55",
"f.	c #181818",
"g.	c #5D5D5D",
"h.	c #595958",
"i.	c #4E4B43",
"j.	c #646158",
"k.	c #69665E",
"l.	c #6B6862",
"m.	c #65635E",
"n.	c #676560",
"o.	c #716F6B",
"p.	c #817F7B",
"q.	c #94938F",
"r.	c #ABABA8",
"s.	c #E3E3E3",
"t.	c #DDDDDD",
"u.	c #D0D0D0",
"v.	c #C3C3C3",
"w.	c #66625A",
"x.	c #A2A19D",
"y.	c #D3D2D1",
"z.	c #CAC9C8",
"A.	c #A6A4A0",
"B.	c #807D76",
"C.	c #59554B",
"D.	c #565248",
"E.	c #161616",
"F.	c #131313",
"G.	c #828282",
"H.	c #474645",
"I.	c #524E46",
"J.	c #4F4C45",
"K.	c #4C4A44",
"L.	c #504E49",
"M.	c #5E5C56",
"N.	c #6F6D67",
"O.	c #7A7771",
"P.	c #807D78",
"Q.	c #8A8884",
"R.	c #908E8A",
"S.	c #ABAAA8",
"T.	c #E0E0DF",
"U.	c #CBCBCB",
"V.	c #BFBEBC",
"W.	c #E2E1E0",
"X.	c #D1D1CF",
"Y.	c #9F9D99",
"Z.	c #726F67",
"`.	c #575349",
" +	c #111111",
".+	c #202020",
"++	c #979797",
"@+	c #353433",
"#+	c #4F4C44",
"$+	c #5D5A51",
"%+	c #656259",
"&+	c #6B6760",
"*+	c #888680",
"=+	c #85847E",
"-+	c #8B8985",
";+	c #908F8B",
">+	c #969491",
",+	c #ACABA8",
"'+	c #DCDCDC",
")+	c #D4D4D4",
"!+	c #635F56",
"~+	c #171717",
"{+	c #101010",
"]+	c #3D3D3D",
"^+	c #969696",
"/+	c #3C3A35",
"(+	c #5B574E",
"_+	c #615D54",
":+	c #66635A",
"<+	c #6B6861",
"[+	c #84827C",
"}+	c #898782",
"|+	c #86847F",
"1+	c #8C8A86",
"2+	c #B9B8B7",
"3+	c #CFCFCF",
"4+	c #989793",
"5+	c #555248",
"6+	c #545047",
"7+	c #151515",
"8+	c #0F0F0F",
"9+	c #656565",
"0+	c #43403A",
"a+	c #5C584F",
"b+	c #615E55",
"c+	c #67635B",
"d+	c #74716A",
"e+	c #797770",
"f+	c #ABA9A6",
"g+	c #C7C7C5",
"h+	c #BBBAB8",
"i+	c #8E8C87",
"j+	c #B5B4B3",
"k+	c #D8D8D8",
"l+	c #817E78",
"m+	c #555148",
"n+	c #121212",
"o+	c #878787",
"p+	c #6B6A6A",
"q+	c #4B4740",
"r+	c #5D5950",
"s+	c #625F56",
"t+	c #9B9995",
"u+	c #C1C0BE",
"v+	c #C0BFBD",
"w+	c #93918B",
"x+	c #68645C",
"y+	c #75726B",
"z+	c #BFBFBF",
"A+	c #E1E1E1",
"B+	c #B8B7B5",
"C+	c #1F1F1F",
"D+	c #1E1E1E",
"E+	c #9F9F9F",
"F+	c #535251",
"G+	c #B9B8B6",
"H+	c #C6C6C4",
"I+	c #A1A09C",
"J+	c #59554C",
"K+	c #565349",
"L+	c #A5A5A3",
"M+	c #C4C4C4",
"N+	c #EAEAEA",
"O+	c #C8C7C6",
"P+	c #2E2E2E",
"Q+	c #595959",
"R+	c #84827E",
"S+	c #8C8A85",
"T+	c #625F57",
"U+	c #58544C",
"V+	c #7B7976",
"W+	c #979694",
"X+	c #B1B0AF",
"Y+	c #141414",
"Z+	c #333231",
"`+	c #716F69",
" @	c #555452",
".@	c #6F6E6A",
"                                                                ",
"                                                                ",
"                                                                ",
"                                                                ",
"                                                                ",
"                                                                ",
"                                                                ",
"                                                                ",
"                                                                ",
"                                  . . + + + . @ #     $ % &     ",
"                      * = - ; # > , ' ) ! ~ { ] ^ / ( _ : < [   ",
"                    } | 1 2 3 4 5 6 : 7 8 9 0 a b c d e f g h 6 ",
"                i j k l m n o p q 8 0 r s t c u v w w x y z A B ",
"        C D A E B x d F G H I J ; K L M N O P Q C R B S T U V W ",
"  X Y Z `  ...z +.@.#.$.%.&.*.2 =.-.;.D >.,.j '.).!.~.{.].^./.  ",
"(._.:.<.Y /.[.}.|.R 1.Q 2.3.4.5.o p 6.9 7.Z 8.9.7.0.a.b.c.d.e.  ",
"f.g.h.i.U j.k. .l.m.n.o.p.$.q.r.s.t.u.v.v <.w.x.y.z.A.B.C.D.D.  ",
"E.F.G.H.I.J.K.L.M.N.O.P.Q Q.R.( S.T.=.U.q V.W.X.Y.Z.`.D.D.D.    ",
"   +.+++@+#+$+%+&+~.O.*+1.=+-+;+>+,+'+)+- p v !+D.D.D.D.D.      ",
"  ~+{+]+^+/+(+_+:+<+).[+}+B |+1+w 2+3+'+u.% 4+D.D.D.5+6+        ",
"    7+8+9+G.0+a+b+c+7.d+e+x f+g+h+i+j+J k+U.l+D.m+              ",
"      n+n+o+p+q+r+s+).t+u+v+w+x+D.y+z+s.A+B+(+                  ",
"      C+{+D+E+F+}.G+H+I+y+J+D.K+e+L+M+N+O+                      ",
"        f.8+P+Q+R+S+y+7.T+U+    V+W+X+                          ",
"          Y+8+Z+f e `+                                          ",
"            F. @.@                                              ",
"                                                                ",
"                                                                ",
"                                                                ",
"                                                                ",
"                                                                ",
"                                                                "};
